<!DOCTYPE svg PUBLIC "-//W3C//DTD SVG 1.1//EN" "http://www.w3.org/Graphics/SVG/1.1/DTD/svg11.dtd">
<svg xmlns="http://www.w3.org/2000/svg" viewBox="0 0 512 512">
<path d="M0 170v170h13.5l-.017-7.75c-.01-4.263-.386-8.332-.836-9.044-.457-.721-.352-1.857.236-2.565.606-.73 1.085-6.562 1.126-13.706.039-6.839.197-28.41.35-47.935.154-19.525-.09-36.26-.542-37.189-.478-.982-.401-1.95.184-2.311.65-.402 1.014-16.775 1.029-46.311.012-25.129.061-49.138.108-53.354.047-4.216-.108-8.041-.343-8.5-.236-.459-.145-4.66.202-9.335.599-8.086-.123-11.658-2.11-10.43-.488.301-.887.052-.887-.555 0-.606.787-.97 1.75-.809 2.034.342 2.958-21.827 1.341-32.168-1.099-7.023-.206-8.826 6.215-12.552 3.235-1.877 5.76-4.222 6.694-6.217 1.054-2.249 2.006-3.048 3.199-2.684.934.284 2.562-.293 3.616-1.284C39.097 31.279 48.839 24 49.94 24c.647 0 2.951-1.425 5.119-3.168 3.054-2.454 5.177-3.27 9.42-3.622 5.919-.491 9.014-2.582 6.457-4.362-1.095-.763-1.14-1.121-.186-1.507.687-.279 1.25-1.131 1.25-1.893 0-.776.615-1.149 1.399-.848.769.295 1.696.056 2.059-.532 1.337-2.163 3.209-1.037 3.209 1.932 0 1.65.336 3.337.748 3.748 1.007 1.007 3.755-2.863 3.151-4.437-.263-.686-.048-1.513.478-1.838.526-.325.956.111.956.968 0 1.86 1.656 2.087 2.254.309.336-.997.73-.995 1.951.012 1.241 1.025 1.753.994 2.714-.165.889-1.07 1.969-1.203 4.317-.529 3.875 1.111 3.752 1.265 3.068-3.837L97.737 0H0v170M100.748.585C99.697 1.636 102.157 7 103.69 7c.822 0 2.639-.9 4.037-2 1.399-1.1 3.607-2 4.908-2C113.952 3 115 2.403 115 1.652c0-1.701-6.166-2.002-7.187-.35-.556.901-1.025.886-1.971-.06-1.299-1.299-4.091-1.659-5.094-.657M139.5 1c-.34.55-.141 1 .441 1S141 1.55 141 1s-.198-1-.441-1-.719.45-1.059 1m12.588-.273c-1.695.319-2.029.692-1.122 1.252.71.439.981 1.298.603 1.909-1.055 1.707-2.28 1.326-2.859-.888-.351-1.344-1.364-2-3.085-2-1.889 0-2.408.402-1.975 1.53.37.965 1.281 1.309 2.468.932 1.035-.328 1.882-.13 1.882.44 0 .57-1.615.976-3.589.902-2.097-.079-3.999.454-4.576 1.281-.757 1.084-1.106 1.123-1.494.165-.821-2.023-2.621-1.429-2.069.683.424 1.619.159 1.805-1.633 1.144-1.177-.435-2.764-.571-3.528-.304-.764.268-1.145.091-.846-.393 1.024-1.657-4.906-.882-6.658.87-2.231 2.231-2.748 2.199-5.47-.337-2.987-2.783-6.29-1.844-3.675 1.045.954 1.054 1.436 2.398 1.072 2.987-1.147 1.856 2.138 4.175 4.924 3.476 1.398-.351 2.542-.215 2.542.303 0 .517 1.688 1.017 3.75 1.11 2.063.093 4.65.206 5.75.252 8.689.361 14.842-.779 15.625-2.894.446-1.206 1.275-2.192 1.843-2.192 1.394 0 1.301 1.294-.218 3.023-.687.783-.263.602.944-.403 1.804-1.504 1.989-2.155 1.041-3.673-.731-1.17-1.549-1.516-2.235-.947-.688.571-1.525.189-2.3-1.051-1.031-1.651-.948-1.962.542-2.032A88.066 88.066 0 0 0 152 6.562c1.375-.149 3.673.063 5.106.472 2.733.78 7.916.186 7.863-.901-.018-.348-1.149-1.446-2.515-2.44-2.277-1.658-2.615-1.675-4.084-.206-.881.881-2.034 1.458-2.561 1.283-1.187-.396-.94-2.361.255-2.032.475.131.607-.432.293-1.25-.314-.818-.86-1.427-1.214-1.352-.354.075-1.728.341-3.055.591M225.461 5.5c.168 3.025-.039 5.5-.461 5.5-.422 0-1.045.787-1.384 1.75-.34.962-.879 2.313-1.2 3-.37.793.203 1.25 1.568 1.25 1.712 0 2.018-.417 1.501-2.048-.359-1.13-.088-2.725.604-3.559.69-.831 1.382-2.722 1.539-4.202.157-1.48.538-3.703.847-4.941.439-1.754.135-2.25-1.378-2.25-1.724 0-1.907.617-1.636 5.5M248.25.662c-2.161.872-1.365 2.509.875 1.798 1.613-.512 1.939-.347 1.354.683-.597 1.049-.487 1.093.487.194 2.127-1.964.208-3.854-2.716-2.675M265 .966c0 1.322-8.111 2.187-9.523 1.015-.937-.777-1.502-.749-2.028.102-.411.665-.014 1.581.911 2.098C256.412 5.33 256.495 7 254.5 7c-.825 0-1.5-.454-1.5-1.008 0-.609-.767-.53-1.935.2-2.513 1.569-1.613 2.984 1.414 2.224 1.748-.439 2.648-.047 3.485 1.517C257.315 12.457 256.57 14 254 14c-1.035 0-2.191.5-2.569 1.112-.854 1.382 1.4 2.898 4.069 2.737 1.725-.105 1.691-.181-.25-.555-1.238-.238-2.25-.852-2.25-1.364 0-1.251 4.72-1.192 5.5.07.34.55 1.154.964 1.809.921.859-.057.842-.22-.059-.583-.687-.278-1.25-1.566-1.25-2.862 0-1.297-.472-2.65-1.049-3.006-.726-.449-.729-1.033-.008-1.901.572-.689.78-1.513.463-1.83-1.692-1.692 3.846-2.821 5.683-1.158 2.257 2.042 3.785 1.177 1.911-1.081-.707-.852-.934-1.875-.506-2.274.429-.399.981-.163 1.226.524.246.688 1.084 1.25 1.863 1.25 2.098 0 1.72 1.675-.773 3.42-1.204.844-1.855 1.869-1.445 2.278.409.409 1.124.129 1.588-.623.465-.751 1.536-1.101 2.381-.777.845.324 1.698.105 1.896-.488.214-.643 1.063-.374 2.104.667 1.66 1.66 1.722 1.618 1.272-.866-.283-1.558-.016-2.611.66-2.611.81 0 .793-.341-.062-1.196-.929-.929-1.499-.783-2.548.651-1.078 1.475-1.518 1.577-2.18.506-.502-.813-.365-1.498.347-1.735 1.366-.456 1.61-3.226.284-3.226-.491 0-1.152.675-1.469 1.5-.316.825-1.066 1.5-1.666 1.5-.599 0-.844-.399-.542-.886.301-.488-.347-1.121-1.441-1.407C265.895.421 265 .538 265 .966M425.286.65c-.928.376-.942.928-.06 2.34.889 1.424.852 2.211-.159 3.429-1.088 1.312-1.077 1.581.07 1.581 2.409 0 4.204-3.878 2.67-5.77-.968-1.196-.983-1.419-.057-.863.688.413 1.25.274 1.25-.308 0-1.094-1.593-1.269-3.714-.409m7.964.056c-2.53.487-2.983 2.075-.828 2.902 1.822.7 5.821-1.407 5.047-2.658-.323-.523-.898-.889-1.278-.814-.38.075-1.703.331-2.941.57M440 1c0 .55.477 1 1.059 1s.781-.45.441-1-.816-1-1.059-1S440 .45 440 1m9.5 0c-.34.55.11 1 1 1s1.34-.45 1-1c-.34-.55-.79-1-1-1-.21 0-.66.45-1 1M240.498 2.004c-.344.555-1.821.704-3.309.334-2.455-.611-2.565-.52-1.269 1.054 2.264 2.747 8.253 4.938 9.242 3.381 1.326-2.09.971-2.521-1.662-2.018-1.459.279-2.5.013-2.5-.638 0-.615.702-1.117 1.559-1.117s1.281-.45.941-1c-.793-1.283-2.208-1.281-3.002.004m75.252-.342c1.808.73 1.534 3.08-.492 4.213-2.571 1.439-.959 2.342 2.103 1.178 1.897-.721 2.639-.682 2.639.138 0 .628.256.886.569.573 1.246-1.246-2.977-6.803-5.069-6.67-.55.035-.437.291.25.568m147.582.761c.36.938-.507 1.791-2.542 2.5-3.994 1.393-4.27 1.36-2.864-.334 1.918-2.311-.459-2.744-3.205-.584-2.254 1.773-2.578 1.809-3.138.35-.567-1.478-.807-1.463-2.604.164-1.792 1.622-1.979 1.634-1.979.13 0-1.794-8.289-1.833-11.145-.052-.745.465-3.155 1.758-5.355 2.874-2.2 1.116-3.92 2.479-3.821 3.029.233 1.305-2.673 4.5-4.093 4.5-.608 0-1.659-.887-2.336-1.972-.792-1.268-1.829-1.743-2.905-1.33-1.127.432-1.437.26-.95-.528.463-.749-.019-1.17-1.336-1.17-1.132 0-2.059-.45-2.059-1s.575-1 1.278-1C415.455 8 419 4.614 419 3.489c0-1.416-2.302-.104-4.978 2.837-2.445 2.687-3.604 3.242-6.025 2.887-1.875-.275-2.997-.001-2.997.733 0 .644.419.913.931.597a1.086 1.086 0 0 1 1.494.336c.838 1.355-2.312 2.252-4.255 1.212-1.173-.628-2.353-.361-3.884.879l-2.199 1.78h2.665c1.466 0 2.833.506 3.04 1.125.557 1.672 3.208 1.362 3.208-.375 0-1.653 1.557-2.026 2.447-.585.311.503 0 1.142-.691 1.421-.991.399-.986.523.025.585.705.043 1.538-.588 1.85-1.403.431-1.121 1.031-1.234 2.469-.465 1.977 1.058 2.807-.374.9-1.553-.55-.34-.964-1.154-.921-1.809.057-.859.22-.842.583.059.278.687 1.817 1.25 3.421 1.25 1.605 0 2.917.45 2.917 1s-.675 1-1.5 1-1.5.406-1.5.902c0 1.058 17.541.89 18.609-.178.398-.398 2.701-.724 5.117-.724 2.86 0 4.162-.373 3.732-1.068-.363-.588-1.275-.832-2.027-.544-.752.289-1.644.076-1.983-.472-.714-1.155-4.62-.159-5.644 1.44-.382.597-1.024.757-1.427.355-1.236-1.236 2.937-3.646 6.373-3.679 1.788-.018 3.251-.37 3.253-.782.002-.412 1.609-.785 3.572-.828 2.983-.065 3.49.222 3.09 1.751-.263 1.007-.07 1.578.428 1.269.499-.308.907-1.152.907-1.876 0-1.487 5.181-2.818 7.502-1.927.838.322 2.101.105 2.807-.48.706-.586 2.387-1.079 3.737-1.095 1.35-.016 3.563-.034 4.919-.04C472.314 7.009 478 5.058 478 3.922c0-.507-.45-.922-1-.922s-1 .436-1 .969c0 .532-.647.72-1.437.417a1.534 1.534 0 0 1-.893-1.969c.335-.873-.095-1.417-1.122-1.417-.916 0-1.408.418-1.092.928.315.51-.399 1.237-1.588 1.614-1.481.47-2.445.178-3.064-.928-1.128-2.015-4.237-2.186-3.472-.191m-328.582.266c-.963.252-1.75 1.1-1.75 1.884 0 2.081 1.76 1.744 3-.573.589-1.1.942-1.948.785-1.884-.157.064-1.072.322-2.035.573M409 3.164c-5.389 1.513-7.212 3.75-2.717 3.332 4.262-.396 7.995-2.238 7.186-3.546-.323-.523-.673-.909-.778-.86-.105.05-1.766.533-3.691 1.074M103 4c0 .55.9 1 2 1s2-.45 2-1-.9-1-2-1-2 .45-2 1m62.813-.317c.721.289 1.584.253 1.916-.079.332-.332-.258-.568-1.312-.525-1.165.048-1.402.285-.604.604M279 4c0 .55.927 1 2.059 1 1.132 0 1.781-.45 1.441-1-.802-1.298-3.5-1.298-3.5 0m-45 .882c0 .55.45 1.278 1 1.618.55.34 1 .168 1-.382s-.45-1.278-1-1.618c-.55-.34-1-.168-1 .382M108.797 8.006c-1.771 3.113-.968 4.11 1.203 1.494.685-.825.91-1.5.5-1.5-.41 0-.185-.675.5-1.5s.852-1.497.372-1.494c-.479.004-1.639 1.354-2.575 3M120 6c0 .55.45 1 1 1s1-.45 1-1-.45-1-1-1-1 .45-1 1m177 .062c0 .516.477.938 1.059.938s.721.563.308 1.25c-.51.849-.209.81.941-.122 2.23-1.809 2.137-2.669-.308-2.853-1.1-.083-2 .271-2 .787m49-.18c0 .55.45 1.278 1 1.618.55.34 1 .168 1-.382s-.45-1.278-1-1.618c-.55-.34-1-.168-1 .382M140.569 7.924c-.935 1.033-1.3 2.124-.813 2.425.488.302 1.625-.313 2.526-1.366 2.141-2.5.505-3.51-1.713-1.059m120.05-.4c-1.984 1.984-2.085 3.476-.236 3.476.761 0 1.643-.993 1.961-2.206.756-2.891.26-3.256-1.725-1.27M303 7c0 .55.477 1 1.059 1s.781-.45.441-1-.816-1-1.059-1-.441.45-.441 1m115.367.606c-1.793 1.438-1.783 1.475.253.92 1.754-.479 2.227-.042 2.742 2.534.685 3.425 2.943 3.596 3.438.26.466-3.141-3.961-5.697-6.433-3.714M238.687 8.75c.343.963 1.042 2.293 1.554 2.956.512.664.572 1.789.134 2.5-.491.797.18.655 1.746-.369 1.664-1.088 3.033-1.353 3.961-.765 1.299.822.573 1.361-1.386 1.029-.442-.075-1.393.454-2.115 1.175-1.083 1.083-.637 1.304 2.55 1.268 2.125-.024 3.864-.516 3.866-1.093.002-.577 1.585-1.621 3.519-2.32 1.933-.7 3.252-1.697 2.93-2.218a1.116 1.116 0 0 0-1.532-.36c-2.329 1.44-5.983 1.431-6.538-.015-.513-1.338-.82-1.34-2.7-.024C241.723 12.583 241 12.384 241 9.5c0-1.532-.569-2.5-1.469-2.5-.969 0-1.256.595-.844 1.75m50.005-.25c1.223 3.514 6.308 6.166 6.308 3.289 0-.482-.621-.744-1.379-.583-.758.162-2.334-.831-3.502-2.206-1.742-2.052-1.998-2.141-1.427-.5M124.25 10.496c-1.48 1.68-1.658 4.504-.285 4.504.53 0 1.43-.87 2-1.934 1.979-3.699.815-5.444-1.715-2.57M145 10c0 .55.477 1 1.059 1s.781-.45.441-1-.816-1-1.059-1-.441.45-.441 1m8-.083c0 .595.45 1.083 1 1.083s1 .9 1 2c0 1.111-.667 2-1.5 2-.825 0-1.5.45-1.5 1s.927 1 2.06 1c1.763 0 2.016-.53 1.75-3.673-.27-3.204-2.81-6.286-2.81-3.41m8.25-.255c-2.981 1.203-1.185 3.338 2.809 3.338 2.461 0 3.815-.395 3.439-1.004-.341-.552-1.792-.709-3.224-.35-2.144.538-2.491.363-1.97-.996.348-.908.535-1.614.415-1.571-.121.043-.781.306-1.469.583m148.563.021c.721.289 1.584.253 1.916-.079.332-.332-.258-.568-1.312-.525-1.165.048-1.402.285-.604.604m36.187.758c0 .857.45 1.559 1 1.559s1-.423 1-.941-.45-1.219-1-1.559c-.55-.34-1 .084-1 .941m127.75-.752c-.962.252-1.75.833-1.75 1.291 0 .458.9.597 2 .31 1.1-.288 2-.921 2-1.407 0-.485-.113-.831-.25-.767-.137.064-1.038.322-2 .573M129 11c0 .55.423 1 .941 1s1.219-.45 1.559-1c.34-.55-.084-1-.941-1S129 10.45 129 11m4 0c0 .55.423 1 .941 1s1.219-.45 1.559-1c.34-.55-.084-1-.941-1S133 10.45 133 11m150.5 0c-.34.55-.168 1 .382 1s1.278-.45 1.618-1c.34-.55.168-1-.382-1s-1.278.45-1.618 1m112 0c-.34.55.309 1 1.441 1 1.132 0 2.059-.45 2.059-1s-.648-1-1.441-1-1.719.45-2.059 1m57.5 0c0 .55.675 1 1.5 1s1.5-.45 1.5-1-.675-1-1.5-1-1.5.45-1.5 1m5.75-.338c.688.278 1.813.278 2.5 0 .688-.277.125-.504-1.25-.504s-1.937.227-1.25.504M24.344 12.545c-.54 1.409 1.279 5.465 2.441 5.44 3.688-.079 4.064-5.59.429-6.284-1.385-.265-2.579.086-2.87.844M87.5 12c.34.55 1.068 1 1.618 1s.722-.45.382-1c-.34-.55-1.068-1-1.618-1s-.722.45-.382 1m9.5 0c0 .55.45 1 1 1s1-.45 1-1-.45-1-1-1-1 .45-1 1m168 0c0 .55.477 1 1.059 1s.781-.45.441-1-.816-1-1.059-1-.441.45-.441 1m4.991.489c.68.819 1.683 1.213 2.229.875.604-.373.461-.951-.363-1.474-2.157-1.366-3.216-1.027-1.866.599m5.742-.365c.679.684 1.486.991 1.793.683.308-.308-.247-.867-1.233-1.243-1.425-.542-1.54-.428-.56.56M371 11.998c0 1.264 1.764 2.185 2.165 1.13.188-.497 1.43-.45 2.835.108 1.461.58 1.98 1.187 1.25 1.461-1.897.712-1.494 2.303.583 2.303 2.756 0 3.259-1.031 1.634-3.351-1.472-2.101-8.467-3.466-8.467-1.651m-258.333.669c-.367.366-.667 1.131-.667 1.7 0 .626.466.567 1.183-.15.651-.651.951-1.416.667-1.7-.284-.285-.817-.217-1.183.15m171.899.231c-1.063.416-1.507 1.02-.987 1.342.52.321 2.065-.035 3.434-.792 2.617-1.449.859-1.845-2.447-.55M352 12.57a61.2 61.2 0 0 0 2.972 1.063c1.195.385 1.222.629.143 1.296-1.026.634-1.051.993-.11 1.574.681.421 1.597.145 2.076-.625.693-1.112 1.241-1.141 2.842-.148 1.369.848 2.188.9 2.64.168.36-.583 1.844-.792 3.296-.464 2.504.566 2.542.519.723-.902-1.342-1.048-2.289-1.19-3.153-.473-.846.702-1.346.691-1.588-.035-.194-.583-2.825-1.281-5.847-1.551-3.022-.27-4.819-.226-3.994.097m126 .489c0 .582.45.781 1 .441s1-.816 1-1.059-.45-.441-1-.441-1 .477-1 1.059m9.565-.164c-.305.493.104 1.148.909 1.457 1.562.599 2.897-.648 1.832-1.713-.904-.904-2.093-.793-2.741.256M138 14.059c0 .582.45.781 1 .441s1-.816 1-1.059-.45-.441-1-.441-1 .477-1 1.059m123 0c0 .582.45.781 1 .441s1-.816 1-1.059-.45-.441-1-.441-1 .477-1 1.059m70.813-.376c.721.289 1.584.253 1.916-.079.332-.332-.258-.568-1.312-.525-1.165.048-1.402.285-.604.604M132 15c0 1.253 1.061 1.253 3 0 1.213-.784 1.069-.972-.75-.985-1.238-.008-2.25.435-2.25.985m13 0c0 .55.45 1 1 1s1-.45 1-1-.45-1-1-1-1 .45-1 1m152.5 0c-.34.55.11 1 1 1s1.34-.45 1-1c-.34-.55-.79-1-1-1-.21 0-.66.45-1 1m131.313-.317c.721.289 1.584.253 1.916-.079.332-.332-.258-.568-1.312-.525-1.165.048-1.402.285-.604.604m-349.119.956c-1.18 1.18.287 2.179 2.392 1.628 1.584-.414 1.763-.747.749-1.39-1.617-1.025-2.302-1.077-3.141-.238M163.5 16c.34.55 1.379.993 2.309.985 1.457-.014 1.484-.15.191-.985-1.958-1.266-3.282-1.266-2.5 0m4.5 0c0 .55 1.012.993 2.25.985 1.819-.013 1.963-.201.75-.985-1.939-1.253-3-1.253-3 0m8.507-.011c-.35.566.051.734.941.393 1.732-.665 2.049-1.382.611-1.382-.518 0-1.216.445-1.552.989m39.243-.3c-2.94.769-1.945 1.993 1.24 1.526 1.644-.242 2.743-.839 2.441-1.327-.575-.929-.832-.943-3.681-.199M308.5 16c.34.55 1.068 1 1.618 1s.722-.45.382-1c-.34-.55-1.068-1-1.618-1s-.722.45-.382 1m-194 1c.34.55.816 1 1.059 1s.441-.45.441-1-.477-1-1.059-1-.781.45-.441 1m332.5-.059c0 .518.45 1.219 1 1.559.55.34 1-.084 1-.941S448.55 16 448 16s-1 .423-1 .941M35.5 19c-.34.55-.141 1 .441 1S37 19.55 37 19s-.198-1-.441-1-.719.45-1.059 1m4.5 1c0 .55.45 1 1 1s1-.45 1-1-.45-1-1-1-1 .45-1 1m-3 2c0 .55.45 1 1 1s1-.45 1-1-.45-1-1-1-1 .45-1 1m426.813.683c.721.289 1.584.253 1.916-.079.332-.332-.258-.568-1.312-.525-1.165.048-1.402.285-.604.604M62.484 36.673c-9.303 6.247-12.82 9.671-10.834 10.544 1.327.584 1.09.667-.839.295-1.479-.286-2.968-.068-3.309.484-.341.552-.143 1.004.439 1.004S49 49.505 49 50.122c0 .77-.478.726-1.519-.138-1.232-1.022-1.845-.98-3.25.227-.952.817-3.273 2.792-5.158 4.388-5.908 5.001-7.165 6.443-6.523 7.482.608.984.621 3.712.144 30.329-.239 13.345.582 16.466 3.987 15.159.847-.325 1.155-.113.762.523-.364.589-1.737.8-3.052.47-1.35-.339-2.391-.156-2.391.419 0 .56.675 1.019 1.5 1.019s1.5.45 1.5 1-.675 1-1.5 1c-1.993 0-1.896.988.25 2.566 1.633 1.2 1.616 1.274-.25 1.11-1.208-.106-1.889.356-1.719 1.167 1.164 5.562 1.325 21.157.218 21.157-.819 0-.93.427-.325 1.25.506.688.806 5.3.668 10.25s-.431 32.675-.652 61.612c-.221 28.937-.718 53.124-1.105 53.75-1.571 2.542 1.453.914 3.924-2.112 1.459-1.788 2.204-2.35 1.654-1.25-.55 1.1-1.986 3.047-3.191 4.326-1.588 1.685-2.039 3.091-1.636 5.104.306 1.528.091 3.243-.477 3.811-.711.711-.704 1.237.021 1.685.604.373.796 2.022.449 3.863l-.606 3.211 3.138-2.937c4.296-4.02 3.996-1.785-.322 2.399-1.904 1.845-3.185 3.802-2.847 4.348.373.605 1.049.445 1.727-.409.613-.77 2.202-2.301 3.532-3.401 2.264-1.872 2.242-1.764-.34 1.691-1.517 2.031-3.213 3.843-3.767 4.028-1.03.343-2 10.781-1.002 10.781.302 0 1.922-1.238 3.6-2.75l3.051-2.75-2.497 2.955c-1.373 1.625-3.059 3.57-3.746 4.321-.688.752-1.25 1.785-1.25 2.295 0 1.793 1.519.894 3.5-2.071 1.1-1.647 2.348-2.996 2.773-2.997.955-.004-2.029 4.859-4.472 7.286-.991.984-1.801 2.31-1.801 2.946 0 .637 1.575-.369 3.5-2.235 4.324-4.191 4.64-2.694.409 1.939-2.279 2.494-3.168 4.525-3.384 7.72l-.292 4.336 3.954-4.248c4.52-4.855 4.041-3.208-.811 2.788-4.111 5.081-5.107 16.307-1.134 12.783 2.011-1.784 2.027-1.776.868.432-.649 1.238-1.74 2.25-2.424 2.25-.827 0-1.166 1.379-1.013 4.118.279 4.979.761 5.587 2.995 3.775 2.013-1.634 1.19.253-1.454 3.334-.919 1.071-1.612 4.443-1.824 8.883l-.342 7.157 2.226-1.876 2.226-1.877-2.25 2.558c-3.921 4.456-2.444 5.518 1.921 1.381l4.172-3.953-3.922 4.908c-3.733 4.672-3.926 5.265-4.031 12.345l-.109 7.438 3.817-4.345c2.099-2.391 3.836-3.821 3.859-3.179.024.641-.298 1.316-.714 1.5-.417.183-2.281 2.278-4.142 4.655l-3.384 4.323-.342 13.677c-1.41 56.252-1.701 52.992 4.573 51.193 1.741-.5 3.822-.657 4.622-.35.801.307 2.159-.025 3.019-.739 1.223-1.015 1.728-1.031 2.32-.073.972 1.572 5.881-.143 6.729-2.351.745-1.942-1.531-4.757-3.298-4.079-.84.322-1.34-.22-1.34-1.454 0-1.083-.45-1.969-1-1.969s-1-.675-1-1.5c0-.884-.923-1.506-2.25-1.515-1.777-.012-1.941-.211-.779-.946 2.643-1.672.619-1.914-5.027-.601-5.199 1.208-5.548 1.172-5.681-.592-.155-2.068 2.779-4.352 6.886-5.361 1.71-.42 2.563-1.243 2.405-2.318-.302-2.057-.966-2.09-3.347-.167-3.962 3.199-6.207 4.132-6.207 2.579 0-.791 2.025-2.45 4.5-3.686 2.475-1.236 4.5-2.834 4.5-3.55 0-.887-1.475-.48-4.616 1.273-2.692 1.504-4.435 2.038-4.184 1.284.237-.712 2.183-2.275 4.325-3.474 2.141-1.198 4.061-2.685 4.267-3.303.555-1.664-.632-1.373-3.902.955-1.606 1.144-3.475 1.872-4.155 1.62-.716-.267-.184-.911 1.265-1.534 3.631-1.56 7.585-4.913 6.762-5.735-.389-.389-2.265.48-4.168 1.932-3.962 3.021-4.767 3.253-3.956 1.139.317-.825 1.01-1.5 1.54-1.5.531 0 1.592-.563 2.359-1.25.766-.687 2.084-1.83 2.928-2.539.865-.727 1.535-2.886 1.535-4.947v-3.656l-3.485 3.377c-1.917 1.858-3.773 3.09-4.126 2.738-.543-.543 3.702-4.772 6.879-6.853 1.009-.661 2.092-38.87 1.102-38.87-.312 0-2.064 1.683-3.895 3.74-1.83 2.057-3.579 3.49-3.885 3.183-.307-.306 1.387-2.506 3.764-4.888l4.321-4.33-.1-10.602c-.056-5.832-.448-11.147-.872-11.812-.424-.665-.21-2.107.475-3.205 1.656-2.651.206-3.975-1.657-1.513-.801 1.06-1.472 1.434-1.489.832-.018-.602.868-1.91 1.968-2.905 2.221-2.01 2.695-5.491.75-5.515-.969-.012-.977-.189-.037-.787.925-.587 1.349-17.929 1.782-72.734.766-96.979 1.261-129.26 2.001-130.458.97-1.57 6.493-1.199 7.137.479.313.817-.564 2.833-1.95 4.48-2.364 2.809-4.91 15.141-3.432 16.62.272.271 2.464-3.4 4.872-8.16 5.351-10.579 9.301-15.19 22.053-25.744 22.445-18.576 24.019-19.669 28.339-19.675 2.208-.003 12.108-.726 22-1.607 17.9-1.594 39.392-1.471 67.985.386 12.393.806 14.258 1.606 27 11.586 3.85 3.016 10.375 7.952 14.5 10.97 4.125 3.018 9.678 7.466 12.339 9.885l4.839 4.399-1.089 12.742c-.599 7.008-1.089 18.5-1.089 25.537 0 21.59-.836 28.096-3.608 28.096h-2.315l-.362-20.75c-.501-28.626-2.137-35.714-11.428-49.492-6.057-8.984-11.995-15.383-13.177-14.201-.248.248.452 1.462 1.556 2.697s4.498 5.846 7.541 10.246c12.084 17.468 14.153 25.348 13.604 51.811-.451 21.73.094 20.651-10.446 20.674-6.587.014-7.266-.185-8.837-2.583-.936-1.429-4.071-5.141-6.965-8.25-2.895-3.109-8.176-9.027-11.735-13.152-9.723-11.266-13.088-12.994-26.696-13.712-6.123-.323-11.132-.279-11.132.099s5.287 6.787 11.75 14.243c18.509 21.354 21.595 25.313 20.091 25.773-.738.225-4.52.892-8.405 1.482-10.415 1.581-24.726 8.781-36.683 18.456l-4.748 3.841-3.252-2.692C132.166 210.212 111 188.707 111 187.278c0-1.606 6.521-10.064 16.449-21.333 9.121-10.354 9.327-11.037 5.371-17.753-4.795-8.141-12.634-15.221-23.547-21.266-12.107-6.707-24.993-10.259-26.023-7.173-.394 1.18 10.797 7.244 13.372 7.246 4.617.003 24.378 16.965 24.378 20.925 0 .903-2.914 5.596-6.475 10.428-3.562 4.833-9.651 13.873-13.531 20.089-8.669 13.888-17.206 23.647-19.09 21.822-2.349-2.274 2.241-13.803 11.422-28.689 2.011-3.259 3.473-6.109 3.249-6.332-.223-.223-3.798 2.378-7.944 5.781-6.806 5.585-7.484 6.461-6.975 9.006.429 2.147-.886 5.762-5.508 15.145-7.272 14.763-8.233 18.738-5.21 21.554 1.163 1.083 1.916 2.601 1.672 3.371-.244.771-.714 2.639-1.046 4.151-.331 1.512-1.269 2.75-2.083 2.75-2.825 0-1.775 6.459 1.814 11.165 6.956 9.12 26.124 21.115 39.646 24.809l2.559.7-.273 13.413c-.366 18.015.268 16.696-10.484 21.807-11.114 5.284-20.598 13.924-27.009 24.606-2.311 3.85-4.546 7.15-4.968 7.333-.421.184-.766 3.993-.766 8.465 0 9.569 2.154 9.436 3.99-.246.565-2.977 1.666-6.119 2.447-6.982.781-.864 2.315-3.658 3.409-6.21 2.172-5.067 5.063-8.015 3.694-3.766-1.642 5.093-1.193 8.384 1.19 8.723 2.31.328 2.462.133 11.068-14.259 2.842-4.751 14.6-15.589 15.638-14.414.173.196.85 3.506 1.504 7.356 1.221 7.184 5.003 16.953 8.379 21.647 1.996 2.774.998 9.314-1.685 11.049-.592.382-.746 1.025-.343 1.429.404.403 2.06-.248 3.681-1.446s4.203-2.187 5.738-2.197c2.021-.013 3.702-1.116 6.096-4 1.885-2.269 2.745-3.986 2-3.991-1.835-.012-8.699-10.985-10.393-16.615-1.711-5.684-1.901-27.249-.332-37.684 5.043-33.537 27.007-58.115 59.919-67.051 31.734-8.616 107.403-7.833 134.951 1.396 24.804 8.31 44.382 29.715 50.976 55.733 7.702 30.393 5.974 47.84-5.983 60.41l-3.882 4.081 2.348 1.847c1.292 1.016 3.289 3.847 4.438 6.291 1.148 2.444 2.553 4.731 3.12 5.081 2.214 1.369.804 2.271-4.527 2.898-3.058.359-6.578 1.321-7.824 2.137-1.707 1.119-7.118 1.647-22 2.145l-19.736.661.698-2.911c.384-1.6.887-3.247 1.118-3.66.232-.413 7.088-.75 15.237-.75 20.223 0 21.288-.254 20.46-4.879-.356-1.992-1.265-4.331-2.021-5.2-2.015-2.316-1.764-2.724 2.455-3.988 7.778-2.33 13.89-18.78 12.794-34.433-2.432-34.701-13.057-56.071-34.651-69.694C318.29 217.914 295.46 214 253.449 214c-38.282 0-58.77 2.624-77.392 9.913-5.744 2.248-11.032 4.087-11.75 4.087-.719 0-1.307.9-1.307 2s-.6 2-1.334 2c-1.823 0-9.443 8.209-14.387 15.5-3.66 5.396-5.744 9.45-9.078 17.667-.595 1.467-1.592 7.294-2.214 12.951-.622 5.656-1.604 11.167-2.182 12.247-.578 1.08-1.067 7.627-1.087 14.549-.034 12.196.056 12.741 2.934 17.586 1.633 2.75 3.265 5.788 3.627 6.75.362.962 1.347 1.75 2.19 1.75 1.844 0 2.036 2.579.275 3.7-.691.44-2.456 2.412-3.922 4.381l-2.666 3.581 2.172 2.626c2.152 2.602 13.37 4.348 15.331 2.386.835-.835 30.996-.873 34.091-.044 1.238.332 2.25 1.24 2.25 2.018 0 .778.675 1.674 1.5 1.99.825.317 1.5 1.37 1.5 2.34 0 1.495-1.019 1.786-6.683 1.909-6.959.151-10.403 1.113-3.984 1.113 2.017 0 3.667.394 3.667.875 0 1.041-13.701 1.33-23.375.492-3.781-.327-6.33-.931-5.665-1.342 1.57-.97-2.147-1.993-7.309-2.011-2.117-.008-5.267-.66-7-1.45-5.46-2.488-10.92-3.553-18.254-3.558l-7.103-.006-5.397 6.857c-16.266 20.665-20.604 24.836-23.166 22.274C85.66 377.06 89.578 367.891 98.9 353c1.487-2.375 1.475-2.428-.243-1.065-3.085 2.449-16.758 19.182-17.931 21.945-.612 1.441-1.727 3.359-2.477 4.263-2.653 3.193 6.564 20.885 15.171 29.12 8.843 8.46 26.205 16.933 38.629 18.852 21.968 3.392 54.653-13.766 66.54-34.931 1.601-2.85 3.136-5.177 3.411-5.171.275.006 2.225 5.399 4.334 11.983 2.74 8.558 4.695 12.894 6.856 15.207 2.374 2.542 2.789 3.564 1.933 4.767-4.738 6.653-9.577 15.999-12.008 23.189-3.7 10.948-4.638 12.631-7.257 13.021-1.93.288-2.158.978-2.252 6.82l-.106 6.5-56.5.259c-61.712.284-61.758.28-69.74-5.596-4.584-3.375-8.753-2.38-7.9 1.885.553 2.765.386 2.959-2.635 3.07-4.468.165-6.169-.149-6.558-1.21-.184-.499-.998-.908-1.809-.908-2.126 0-1.042 1.224 2.978 3.364 3.206 1.706 3.759 1.735 6.549.343 1.676-.836 4.975-1.781 7.331-2.101 2.356-.319 3.609-.326 2.784-.014-.825.311-2.175.823-3 1.137-.825.315-2.322.731-3.327.927-2.402.467-4.955 3.052-3.75 3.797.516.319 1.221.122 1.567-.437.345-.559 1.914-1.016 3.486-1.016 1.571 0 3.084-.563 3.362-1.25.395-.979.521-.972.583.031.043.705-.596 1.541-1.421 1.857-2.436.935-1.711 2.636.909 2.135 1.807-.346 2.269-.097 1.848.999-.429 1.119-.001 1.314 1.842.838 2.357-.609 2.361-.6.203.514-1.792.926-2.854.748-5.75-.961-4.533-2.674-4.632-1.408-.129 1.658 3.129 2.131 4.137 2.275 12.243 1.754 4.859-.313 15.02-.795 22.58-1.071 7.56-.275 14.085-.555 14.5-.621.415-.066 1.204-.047 1.754.041s8.818.123 18.373.077c16.646-.08 17.451-.176 19.217-2.292 1.014-1.215 1.858-1.737 1.877-1.159.018.577-.507 1.59-1.167 2.25-.66.66-.772 1.218-.25 1.24.523.022 9.385.005 19.694-.038 20.141-.084 22.756.437 22.756 4.533 0 1.749.548 2.465 1.887 2.465 2.121 0 25.209-5.885 35.027-8.928 3.527-1.093 6.809-1.743 7.293-1.444.485.299 1.423.102 2.087-.438 2.423-1.972 27.663-.718 33.206 1.65 2.75 1.175 9.5 3.289 15 4.697s12.193 3.206 14.873 3.994c5.541 1.631 6.627 1.308 6.627-1.968 0-1.275.563-2.711 1.25-3.191.7-.488 26.97-.613 59.75-.282l58.5.589 5.5-2.632c11.763-5.629 41.87-27.789 41.036-30.204-.256-.738-.456-3.104-.446-5.256.01-2.153-.156-3.39-.369-2.75-.213.64-.702 1.163-1.087 1.163-.942 0-.833-13.634.116-14.583 1.438-1.439.735-2.646-1.239-2.13-1.844.482-1.88.365-.5-1.606.819-1.169 1.489-2.818 1.489-3.663 0-.845.9-2.099 2-2.786 2.505-1.564 2.612-3.205.167-2.565-1.482.387-1.834-.106-1.834-2.571 0-2.531.355-2.994 2.084-2.719 1.146.182 1.521.139.833-.096-.687-.235-1.294-1.182-1.349-2.104-.471-7.989-.396-10.371.342-10.827.47-.29.327-1.163-.317-1.939-.891-1.074-.893-1.746-.007-2.814.886-1.067.885-1.496-.002-1.791-1.447-.483-.252-6.806 1.285-6.806.621 0 .526-.623-.237-1.542-.939-1.131-.984-1.839-.169-2.654.652-.652.773-1.769.292-2.707-.449-.878-.748-4.859-.664-8.847.084-3.988-.159-7.25-.54-7.25-.833 0-.194-7.689.768-9.245.444-.719.056-.857-1.129-.402-1.42.545-1.571.41-.706-.632.604-.729.854-2.263.554-3.41-.3-1.147-.056-2.388.542-2.757.598-.37 1.087-1.122 1.087-1.672 0-.55-.419-.741-.931-.425-2.23 1.378-1.804-1.401.44-2.871 3.223-2.112 3.218-3.807-.009-2.997-2.939.738-3.171-.166-.75-2.93 1.53-1.747 1.545-1.924.122-1.407-2.274.826-1.741-8.186.559-9.473 2.224-1.245 1.951-3.035-.351-2.304-1.711.543-1.871.195-1.47-3.183.248-2.086.472-5.879.499-8.43.039-3.672.573-5.094 2.563-6.824 2.871-2.497 2.519-3.746-.586-2.084-2.617 1.401-2.849-.419-.484-3.796.881-1.258 1.342-2.548 1.024-2.866-.319-.318-.862.159-1.207 1.059-.346.901-1.033 1.387-1.528 1.082-.494-.306.281-2.103 1.724-3.994 2.467-3.236 2.184-4.838-.398-2.256-1.669 1.669-2.771.189-1.237-1.659.971-1.17.993-1.852.094-2.935-.683-.823-.785-1.65-.243-1.984.51-.316 1.165-1.481 1.455-2.591.29-1.109.209-1.82-.181-1.579-.974.602-.777-10.634.215-12.185.439-.687.413-1.25-.057-1.25s-.865-1.8-.878-4c-.015-2.626.423-4 1.276-4 .914 0 1.185 1.188.914 4-.212 2.2.038 4 .555 4 .544 0 .489.844-.13 2-1.385 2.588.058 2.581 2.278-.011 2.117-2.473 2.176-3.1.222-2.351-1.703.654-2.064-1.171-.432-2.18.588-.363.797-1.366.466-2.229s-.024-1.936.682-2.384c.934-.592.788-.819-.534-.83-1.68-.014-1.653-.247.359-3.073 2.906-4.08 1.881-4.827-1.352-.984-1.408 1.673-2.957 3.042-3.443 3.042-1.045 0-1.013-7.98.039-9.665.4-.64.162-1.36-.529-1.599-.776-.269.182-1.735 2.506-3.836 3.007-2.718 3.809-4.202 4-7.4.289-4.859-1.257-5.998-3.053-2.25-1.554 3.243-3.656 3.735-2.669.625.39-1.228.189-2.425-.476-2.836-.807-.498-.551-1.431.859-3.125 1.461-1.754 2.02-1.991 2.044-.864.018.853-.507 2.09-1.167 2.75-.933.933-.849 1.2.378 1.2 3.467 0 4.319-2.957 4.437-15.404.063-6.653.251-14.83.417-18.171.166-3.342-.005-6.572-.38-7.18-.376-.607-.511-3.171-.3-5.697.21-2.527-.015-4.84-.501-5.14-.486-.3-.574-1.047-.196-1.659 1.65-2.67 2.627-37.454 1.079-38.413-.422-.261-.572-.789-.334-1.174 1.202-1.944 2.637-58.794 1.556-61.662-.78-2.071-1.338-2.669-9.106-9.757-7.211-6.581-9.99-8.964-14.85-12.734-2.475-1.92-5.384-4.294-6.465-5.275-1.081-.98-2.566-1.552-3.302-1.27-.767.294-1.059.063-.684-.543.359-.58-.293-1.303-1.448-1.605-1.156-.302-2.101-.947-2.101-1.433 0-.485-.675-.883-1.5-.883s-1.5-.439-1.5-.976c0-.631-65.062-.926-184.25-.836-177.536.135-184.298.207-185.557 1.976C73.804 39.116 71 39.675 71 38c0-.55.99-1 2.2-1 3.192 0 .98-1.637-3.216-2.38-2.804-.497-4.322-.081-7.5 2.053M77 38c0 .55.702 1 1.559 1s1.281-.45.941-1c-.34-.55-1.041-1-1.559-1S77 37.45 77 38m4-.607c0 .216.675.652 1.5.969.825.316 1.5.139 1.5-.393 0-.533-.675-.969-1.5-.969s-1.5.177-1.5.393M87 38c-.825.533-1.05.969-.5.969s1.675-.436 2.5-.969c.825-.533 1.05-.969.5-.969s-1.675.436-2.5.969m4 0c0 .55.45 1 1 1s1-.45 1-1-.45-1-1-1-1 .45-1 1m5.557.418c1.067.78 2.153 1.206 2.412.946.551-.55-2.028-2.326-3.41-2.349-.518-.008-.068.623.998 1.403M101.5 38c.34.55 1.068 1 1.618 1s.722-.45.382-1c-.34-.55-1.068-1-1.618-1s-.722.45-.382 1m4.5 0c0 .55.45 1 1 1s1-.45 1-1-.45-1-1-1-1 .45-1 1m4.5 0c.34.55 1.041 1 1.559 1s.941-.45.941-1-.702-1-1.559-1-1.281.45-.941 1m5.5 0c0 .55.45 1 1 1s1-.45 1-1-.45-1-1-1-1 .45-1 1m3.695.316c.309.499-.046 1.283-.788 1.741-.742.459-1.046 1.137-.676 1.508.371.37 1.402-.055 2.293-.946 1.934-1.934 2.687-2.008 4.276-.419.864.864 1.2.881 1.2.059 0-.628-.562-1.502-1.25-1.943-1.731-1.111-5.741-1.111-5.055 0M127 37.5c0 .932 4.164 4.67 4.655 4.178.595-.595-2.789-4.678-3.877-4.678-.428 0-.778.225-.778.5m5 .393c0 1.377 3.216 2.291 4.289 1.218.525-.525 1.575-.717 2.333-.426.758.291 1.378.031 1.378-.578 0-1.522-3.696-1.402-4.417.143-.466 1-.7 1-1.166 0-.669-1.434-2.417-1.692-2.417-.357M142 38c0 .55.45 1 1 1s1-.45 1-1-.45-1-1-1-1 .45-1 1m8 0c0 .55.45 1 1 1s1 .675 1 1.5.45 1.5 1 1.5c1.454 0 1.224-1.919-.429-3.571C150.896 36.753 150 36.604 150 38m6 .973c1.375 1.06 2.65 1.5 2.833.978.184-.523 1.061-.951 1.95-.951 1.288 0 1.364-.253.375-1.242-.988-.988-1.452-.938-2.276.25-.779 1.124-1.159 1.184-1.541.242-.279-.687-1.258-1.24-2.174-1.228-1.276.017-1.081.474.833 1.951m8-1.091c0 .55.45 1.278 1 1.618.55.34 1 .168 1-.382s-.45-1.278-1-1.618c-.55-.34-1-.168-1 .382m4.743.672c1.113.814 2.162.94 2.877.346.62-.514 1.932-.625 2.917-.247 1.121.43 1.552.3 1.152-.347-.351-.568-2.452-1.033-4.668-1.033-3.521 0-3.809.162-2.278 1.281M178.5 38c.34.55 1.041 1 1.559 1s.941-.45.941-1-.702-1-1.559-1-1.281.45-.941 1m5 0c.34.55 1.266 1 2.059 1 .793 0 1.441-.45 1.441-1s-.927-1-2.059-1c-1.132 0-1.781.45-1.441 1m6.5 0c0 .55.45 1 1 1s1-.45 1-1-.45-1-1-1-1 .45-1 1m4 0c0 .55.423 1 .941 1s1.219-.45 1.559-1c.34-.55-.084-1-.941-1S194 37.45 194 38m5-.607c0 .216.698.661 1.552.989.89.341 1.291.173.941-.393-.587-.951-2.493-1.406-2.493-.596m4.5.607c.34.55 1.743 1 3.118 1 1.412 0 2.231-.435 1.882-1-.34-.55-1.743-1-3.118-1-1.412 0-2.231.435-1.882 1m6.5 0c0 .55.675 1 1.5 1s1.5-.45 1.5-1-.675-1-1.5-1-1.5.45-1.5 1m4-.087c0 .929 5.504.916 6.436-.015.315-.316-1.004-.633-2.932-.705-1.927-.073-3.504.252-3.504.72m8.5.087c.34.55 1.041 1 1.559 1s.941-.45.941-1-.702-1-1.559-1-1.281.45-.941 1m3.5 0c0 .55.45 1 1 1s1-.45 1-1-.45-1-1-1-1 .45-1 1m3.5 0c.34.55 1.041 1 1.559 1s.941-.45.941-1-.702-1-1.559-1-1.281.45-.941 1m6.057.418c1.067.78 2.153 1.206 2.412.946.551-.55-2.028-2.326-3.41-2.349-.518-.008-.068.623.998 1.403M240 38c0 .55.45 1 1 1s1-.45 1-1-.45-1-1-1-1 .45-1 1m3.459.067c-.363.586-.389 1.336-.059 1.666.33.33.6.045.6-.634 0-.779.738-1 2-.599 1.147.364 2 .18 2-.433 0-1.387-3.684-1.388-4.541 0M250 38c0 .55.702 1 1.559 1s1.281-.45.941-1c-.34-.55-1.041-1-1.559-1s-.941.45-.941 1m5.5 0c.34.55 1.068 1 1.618 1s.722-.45.382-1c-.34-.55-1.068-1-1.618-1s-.722.45-.382 1m4.5 0c0 .55.45 1 1 1s1-.45 1-1-.45-1-1-1-1 .45-1 1m3.568-.099c.838.838 4.432.792 4.432-.057 0-.452-1.104-.73-2.452-.619-1.349.112-2.24.416-1.98.676M270 38c0 .55.45 1 1 1s1-.45 1-1-.45-1-1-1-1 .45-1 1m4 0c0 .55.675 1 1.5 1s1.5-.45 1.5-1-.675-1-1.5-1-1.5.45-1.5 1m5-.19c0 .537.713 1.249 1.584 1.584.973.373 1.431.15 1.187-.581-.498-1.495-2.771-2.318-2.771-1.003m5 .19c0 .55.45 1 1 1s1-.45 1-1-.45-1-1-1-1 .45-1 1m4.537-.061c-.319.517.298.874 1.372.793 1.074-.081 1.732-.504 1.463-.94-.665-1.075-2.126-.999-2.835.147M294 38c0 .55.45 1 1 1s1-.45 1-1-.45-1-1-1-1 .45-1 1m4 0c0 .55.45 1 1 1s1-.45 1-1-.45-1-1-1-1 .45-1 1m4 0c0 .55.45 1 1 1s1-.45 1-1-.45-1-1-1-1 .45-1 1m4 0c0 .55.927 1 2.059 1 1.132 0 1.781-.45 1.441-1-.34-.55-1.266-1-2.059-1-.793 0-1.441.45-1.441 1m6 0c0 .55.45 1 1 1s1-.45 1-1-.45-1-1-1-1 .45-1 1m3 0c0 .55.45 1 1 1s1-.45 1-1-.45-1-1-1-1 .45-1 1m3.5 0c.34.55 1.068 1 1.618 1s.722-.45.382-1c-.34-.55-1.068-1-1.618-1s-.722.45-.382 1m4 0c.34.55 1.041 1 1.559 1s.941-.45.941-1-.702-1-1.559-1-1.281.45-.941 1m4.5-.607c0 .949 2.993 1.427 3.527.563.325-.526-.336-.956-1.468-.956s-2.059.177-2.059.393m5.51.591c-.25.404.698.608 2.106.454 3.465-.381 4.082-1.188.907-1.188-1.408 0-2.764.33-3.013.734m6.49.075c0 .582.45.781 1 .441s1-.816 1-1.059-.45-.441-1-.441-1 .477-1 1.059m4.813-.376c.721.289 1.584.253 1.916-.079.332-.332-.258-.568-1.312-.525-1.165.048-1.402.285-.604.604M354 38c0 .55.45 1 1 1s1-.45 1-1-.45-1-1-1-1 .45-1 1m5 0c0 .55.45 1 1 1s1-.45 1-1-.45-1-1-1-1 .45-1 1m12 0c0 .55.702 1 1.559 1s1.281-.45.941-1c-.34-.55-1.041-1-1.559-1s-.941.45-.941 1m5.632.214c.268.432 1.134.786 1.927.786.793 0 1.441-.354 1.441-.786 0-.432-.867-.785-1.927-.785-1.059 0-1.708.353-1.441.785M382.5 38c.34.55 1.293 1 2.118 1s1.222-.45.882-1c-.34-.55-1.293-1-2.118-1s-1.222.45-.882 1m6 0c2.749 1.181 4.328 1.181 2.5 0-.825-.533-2.175-.945-3-.914-.989.036-.819.347.5.914m5.5 0c0 .55.45 1 1 1s1-.45 1-1-.45-1-1-1-1 .45-1 1m5.733.124c.679.684 1.486.991 1.793.683.308-.308-.247-.867-1.233-1.243-1.425-.542-1.54-.428-.56.56M404 38c0 .55.477 1 1.059 1s.781-.45.441-1-.816-1-1.059-1-.441.45-.441 1m3.5 0c.34.55 1.068 1 1.618 1s.722-.45.382-1c-.34-.55-1.068-1-1.618-1s-.722.45-.382 1m5 0c.34.55.816 1 1.059 1s.441-.45.441-1-.477-1-1.059-1-.781.45-.441 1m93.5.059c0 .582.45.781 1 .441s1-.816 1-1.059-.45-.441-1-.441-1 .477-1 1.059m4 .941c0 .55.45 1 1 1s1-.45 1-1-.45-1-1-1-1 .45-1 1m-442 .972c0 1.356 1.777 2.198 2.425 1.149.31-.501-.109-1.169-.931-1.485-.822-.315-1.494-.164-1.494.336M75 40c0 .55.477 1 1.059 1s.781-.45.441-1-.816-1-1.059-1-.441.45-.441 1m17 1c0 .55.477 1 1.059 1s.781-.45.441-1-.816-1-1.059-1-.441.45-.441 1m8 0c0 .55.477 1 1.059 1s.781-.45.441-1-.816-1-1.059-1-.441.45-.441 1m4 0c0 .55.45 1 1 1s1-.45 1-1-.45-1-1-1-1 .45-1 1m4.5 0c.34.55.816 1 1.059 1s.441-.45.441-1-.477-1-1.059-1-.781.45-.441 1m4.5 0c0 .55.702 1 1.559 1s1.281-.45.941-1c-.34-.55-1.041-1-1.559-1s-.941.45-.941 1m27 0c0 .55.45 1 1 1s1-.45 1-1-.45-1-1-1-1 .45-1 1m4 .059c0 .582.45.781 1 .441s1-.816 1-1.059-.45-.441-1-.441-1 .477-1 1.059m4-.059c0 .55.477 1 1.059 1s.781-.45.441-1-.816-1-1.059-1-.441.45-.441 1m14 0c0 .55.45 1 1 1s1-.45 1-1-.45-1-1-1-1 .45-1 1m5 0c0 .55.45 1 1 1s1-.45 1-1-.45-1-1-1-1 .45-1 1m5 0c0 .55.477 1 1.059 1s.781-.45.441-1-.816-1-1.059-1-.441.45-.441 1m5 0c0 .55.477 1 1.059 1s.781-.45.441-1-.816-1-1.059-1-.441.45-.441 1m5 0c0 .55.477 1 1.059 1s.781-.45.441-1-.816-1-1.059-1-.441.45-.441 1m10 0c0 .55.45 1 1 1s1-.45 1-1-.45-1-1-1-1 .45-1 1m7.5 0c-.34.55-.141 1 .441 1S201 41.55 201 41s-.198-1-.441-1-.719.45-1.059 1m3.5 0c0 .55.477 1 1.059 1s.781-.45.441-1-.816-1-1.059-1-.441.45-.441 1m9.5 0c-.34.55-.141 1 .441 1S214 41.55 214 41s-.198-1-.441-1-.719.45-1.059 1m15 0c-.34.55-.141 1 .441 1S229 41.55 229 41s-.198-1-.441-1-.719.45-1.059 1m4 0c-.34.55-.141 1 .441 1S233 41.55 233 41s-.198-1-.441-1-.719.45-1.059 1M60.658 42.551c.607 1.582 2.342 1.994 2.342.556 0-.491-.652-1.143-1.449-1.449-.969-.372-1.265-.076-.893.893M71.5 42c-.34.55.084 1 .941 1S74 42.55 74 42s-.423-1-.941-1-1.219.45-1.559 1m6.5 0c0 .55.477 1 1.059 1s.781-.45.441-1-.816-1-1.059-1-.441.45-.441 1m-22.389 2.572c-.788 2.053 1.17 5.682 2.591 4.803.724-.447.45-1.181-.801-2.142-1.331-1.024-1.526-1.603-.651-1.931 1.429-.536 1.703-2.302.357-2.302-.491 0-1.165.708-1.496 1.572m11.818-.001c1.992 1.992 2.031 3.543.071 2.791-.825-.317-1.5-.104-1.5.472 0 1.797 1.443 2.047 3.43.593 1.849-1.352 1.852-1.458.084-3.411C68.511 43.907 67.278 43 66.774 43s-.21.707.655 1.571M75 44c0 .55.45 1 1 1s1-.45 1-1-.45-1-1-1-1 .45-1 1m.5 3.043c-3.3 1.722-7.465 4.241-9.256 5.599-1.791 1.358-3.773 2.149-4.404 1.759-.74-.457-.875-.266-.379.537.496.802-.6 2.372-3.074 4.404C42.587 72.317 41 75.731 41 96.734c0 18.713.229 19.353 4.977 13.944 1.604-1.826 9.029-8.014 16.5-13.75 7.47-5.735 16.299-12.566 19.619-15.178 4.123-3.245 6.977-4.75 9.005-4.75 1.633 0 4.078-.726 5.433-1.614 9.103-5.965 95.472-6.062 102.27-.115.933.816 3.826 1.791 6.429 2.165 2.603.375 5.078 1.265 5.5 1.979.422.713 6.617 5.454 13.767 10.535 7.15 5.081 14.35 10.46 16 11.953 1.65 1.493 4.8 4.014 7 5.603 4.722 3.409 5.483 4.374 4.819 6.105-1.411 3.676 1.234 3.279 5.549-.832 12.704-12.103 38.724-32.532 42.482-33.351 1.732-.378 4.34-1.685 5.794-2.904 1.903-1.595 4.567-2.403 9.5-2.88 3.771-.364 11.131-1.137 16.356-1.717 15.373-1.707 37.027-1.254 52.122 1.089C405.496 76.334 406 76.485 406 79.567c0 2.343.256 2.433 6.93 2.433h6.931l19.441 17.944c21.091 19.466 21.121 19.503 19.125 23.106-1.759 3.177-1.756 5.765.01 10.771 1.314 3.726.272 2.873-12.25-10.023-18.49-19.041-34.568-32.23-38.105-31.257-3.911 1.077-10.747.695-18.285-1.019-20.143-4.582-37.467-5.119-62.233-1.93-6.015.774-13.89 1.424-17.5 1.443-8.007.044-8.139.116-22.381 12.238-13.289 11.31-24.702 23.217-27.342 28.526-1.779 3.576-3.903 58.336-2.341 60.344.275.353 7.025.803 15 1l14.5.357 3.305-7c5.244-11.106 18.928-33.1 19.955-32.073.563.563-3.44 7.635-8.947 15.805-3.876 5.751-12.241 21.725-11.636 22.22.178.146 1.97.519 3.982.829 4.358.671 7.558-2.617 17.307-17.781 3.182-4.95 8.429-12.67 11.66-17.156 3.231-4.485 5.874-8.844 5.874-9.686 0-3.745-16.018-15.881-36.942-27.989-9.397-5.438-12.227-8.681-6.269-7.186 16.523 4.147 56.279 31.026 56.183 37.986-.015 1.117-4.6 8.106-10.188 15.531-21.443 28.493-22.39 30-18.843 30 1.068 0 2.187.398 2.488.885.3.486 2.689 1.19 5.309 1.564 7.682 1.096 20.181 5.732 21.104 7.828.188.427 2.101 1.674 4.25 2.77 2.15 1.097 3.908 2.435 3.908 2.973 0 .539.9.98 2 .98 1.111 0 2 .667 2 1.5 0 .825.675 1.5 1.5 1.5s1.501.338 1.501.75c.001.412 1.145 2.08 2.543 3.706 3.417 3.972 3.886 3.662 24.956-16.529l17-16.291-4.571-4.568c-2.514-2.512-10.527-10.151-17.807-16.974-13.389-12.549-14.587-14.665-7.389-13.041 4.519 1.019 12.211 6.334 22.983 15.88a4517.678 4517.678 0 0 0 13.662 12.06c2.817 2.47 8.272 7.951 12.122 12.179 8.822 9.688 9.461 9.695 4.611.048-4.784-9.514-14.04-21.32-27.613-35.22-11.389-11.662-12.661-14.281-10.017-20.61 3.4-8.137 15.217-16.154 27.769-18.84 3.897-.833 3.45-2.05-2.255-6.149-4.471-3.212-7.198-7.531-5.701-9.028.293-.293 5.185 2.585 10.87 6.396 5.685 3.812 11.749 7.659 13.476 8.549 4.368 2.253 12.376 10.475 14.01 14.386 1.127 2.698 1.346 26.602 1.27 139.027-.05 74.673.225 138.529.611 141.903 1.244 10.88-3.344 19.543-13.872 26.191-13.101 8.274-7.509 7.641-70.303 7.964l-56.143.289-.593 2.211c-.928 3.462-.84 3.572 3.13 3.901l3.75.31-.327 5.644c-.188 3.249.123 5.921.732 6.297 1.384.856 99.737.812 107.334-.048 6.413-.725 18.217-6.184 23.861-11.034 19.233-16.528 23.32-23.89 21.165-38.13-.603-3.983-.584-6.51.052-7.146 1.499-1.499 2.623-10.393 1.49-11.789-.539-.664-.69-1.674-.337-2.245.353-.572.827-31.304 1.053-68.294.58-94.947 1.772-171.748 2.689-173.36.839-1.475-.351-8.395-1.444-8.395-.614 0-.556-.55.147-1.397 1.541-1.858 1.782-21.058.287-22.86-1.631-1.965-2.628-9.362-1.367-10.141 1.26-.779.47-30.23-.955-35.602-1.228-4.627-10.332-14.351-22.573-24.111l-9.807-7.818-92.5-.102c-50.875-.056-130.525-.316-177-.579l-84.5-.478-6 3.131M60 45.882c0 .55.45 1.278 1 1.618.55.34 1 .168 1-.382s-.45-1.278-1-1.618c-.55-.34-1-.168-1 .382M72 46c0 .55.45 1 1 1s1-.45 1-1-.45-1-1-1-1 .45-1 1m-20.425 5.128C49.999 52.66 49.932 53 51.203 53c1.811 0 4.268-2.606 3.096-3.283-.44-.254-1.665.381-2.724 1.411M60 49.973c-.825.486-2.288 1.126-3.25 1.423-2.11.652-2.154 1.486-.214 4.05 1.142 1.511 1.739 1.679 2.668.75.928-.928.815-1.196-.504-1.196-.935 0-1.7-.434-1.7-.965 0-1.601 3.935-3.19 6.156-2.485 1.496.474 1.954.279 1.629-.695-.552-1.659-2.769-2.067-4.785-.882m-12.173 3.533c-.843.843.205 4.494 1.29 4.494 1.02 0 1.027-.778.031-3.302-.391-.991-.985-1.528-1.321-1.192M52 55c0 .55.675 1 1.5 1s1.5-.45 1.5-1-.675-1-1.5-1-1.5.45-1.5 1m-.381 2.808c-.347.562-.066 1.224.625 1.472.845.303.469 1.15-1.147 2.585-2.757 2.449-3.747 2.649-4.377.885-.245-.687-.832-.888-1.304-.446-.472.443-.251 1.18.491 1.639.742.458 1.04 1.334.662 1.945-1.602 2.593 1.466.776 6.022-3.566 2.7-2.573 4.045-4.358 2.989-3.966-1.108.411-2.218.229-2.625-.429-.465-.752-.92-.793-1.336-.119M44 59c0 .55-.765 1-1.7 1-1.236 0-1.4.3-.6 1.1.8.8 1.673.527 3.2-1 1.6-1.6 1.743-2.1.6-2.1-.825 0-1.5.45-1.5 1m463.25-.338c-1.758.71-1.562 3.338.25 3.338.833 0 1.5-.889 1.5-2 0-1.1-.113-1.964-.25-1.921-.137.043-.812.306-1.5.583M47.543 59.931c-.683 1.105.894 2.299 1.818 1.375.95-.951.773-2.306-.302-2.306-.518 0-1.2.419-1.516.931M34 61.441c0 .857.45 1.559 1 1.559s1-.423 1-.941-.45-1.219-1-1.559c-.55-.34-1 .084-1 .941m4 1c0 .857.45 1.559 1 1.559s1-.423 1-.941-.45-1.219-1-1.559c-.55-.34-1 .084-1 .941m3.192 2.634c.197.591.785 1.075 1.308 1.075s1.111-.484 1.308-1.075C44.005 64.484 43.417 64 42.5 64s-1.505.484-1.308 1.075M38 66.941c0 .518.45 1.219 1 1.559.55.34 1-.084 1-.941S39.55 66 39 66s-1 .423-1 .941M43.5 69c.34.55 1.041 1 1.559 1s.941-.45.941-1-.702-1-1.559-1-1.281.45-.941 1M35 70c0 .55.45 1 1 1s1-.45 1-1-.45-1-1-1-1 .45-1 1m6 .882c0 .55.45 1.278 1 1.618.55.34 1 .168 1-.382s-.45-1.278-1-1.618c-.55-.34-1-.168-1 .382M34.71 76c-.287 1.1-.115 2 .384 2 .498 0 .906-.188.906-.418 0-.23.273-1.13.607-2 .334-.87.161-1.582-.383-1.582-.545 0-1.226.9-1.514 2M39 75c0 .55.45 1 1 1s1-.45 1-1-.45-1-1-1-1 .45-1 1m471 3c0 .55.45 1 1 1s1-.45 1-1-.45-1-1-1-1 .45-1 1m-.436 8.707c-.542 1.425-.428 1.54.56.56.684-.679.991-1.486.683-1.793-.308-.308-.867.247-1.243 1.233M503 93.214c0 2.07 1.088 2.298 2.8.586 1.713-1.713 1.491-2.371-.8-2.371-1.253 0-2 .666-2 1.785M34 100c0 .55.45 1 1 1s1-.45 1-1-.45-1-1-1-1 .45-1 1m146.196 9.456c-8.884 9.294-19.327 27.061-21.569 36.701-.34 1.462-.894 3.374-1.23 4.25-.336.876-.113 1.593.496 1.593s1.107-.833 1.107-1.852c0-6.275 13.987-29.716 24.75-41.476 5.424-5.927 7.282-8.672 5.868-8.672-.21 0-4.45 4.255-9.422 9.456M34 104c0 .55 1.013.993 2.25.985 1.819-.013 1.963-.201.75-.985-1.939-1.253-3-1.253-3 0m475.877 10.229c-.656 1.227-1.797 2.834-2.535 3.572-2.039 2.039-1.661 3.44.602 2.229 2.412-1.291 3.292-2.671 3.622-5.684.323-2.938-.161-2.971-1.689-.117m-6.418 1.838c-.363.586-.445 1.281-.183 1.543s.743-.218 1.069-1.067c.676-1.762.1-2.072-.886-.476m-1.365 5.32c-.818.985-.86 1.639-.135 2.087.58.359 1.333-.07 1.672-.954.844-2.2-.084-2.884-1.537-1.133m-467.361.737c.679.684 1.486.991 1.793.683.308-.308-.247-.867-1.233-1.243-1.425-.542-1.54-.428-.56.56m158.619-.032c-9.744 2.823-14.383 17.964-7.873 25.7 9.277 11.026 23.996 12.265 32.373 2.724 10.618-12.094-7.662-33.302-24.5-28.424m59.19 2.254c-1.851 1.353-3.359 13.277-1.537 12.151.671-.415 6.729-10.281 7.828-12.747.573-1.286-4.355-.82-6.291.596m158.699 2.122C399.982 131.71 392 138.536 392 142.923c0 3.388 1.083 4.321 6.977 6.01 2.462.706 6.368 2.585 8.68 4.175 10.111 6.956 27.375.583 27.333-10.09-.011-2.814-3.881-11.652-7.053-16.107-2.727-3.829-9.062-3.997-16.696-.443M36.5 129c.34.55.816 1 1.059 1s.441-.45.441-1-.477-1-1.059-1-.781.45-.441 1m-.842 4.449c-.372.969-.076 1.265.893.893 1.582-.607 1.994-2.342.556-2.342-.491 0-1.143.652-1.449 1.449m404.087 12.301c-.288 3.713-.864 7.65-1.281 8.75-.595 1.57-.489 1.752.493.846 1.48-1.365 4.088-13.065 3.345-15.002-1.136-2.96-2.059-1.007-2.557 5.406M35.5 142c.34.55 1.041 1 1.559 1s.941-.45.941-1-.702-1-1.559-1-1.281.45-.941 1m473.959.067c-.363.586-.419 1.306-.126 1.6.717.716 2.667-.546 2.667-1.726 0-1.278-1.726-1.193-2.541.126M34 144c0 .55.477 1 1.059 1s.781-.45.441-1-.816-1-1.059-1-.441.45-.441 1m476 2c0 .55.45 1 1 1s1-.45 1-1-.45-1-1-1-1 .45-1 1m-5 7c0 .55.45 1 1 1s1-.45 1-1-.45-1-1-1-1 .45-1 1m-93.036 5.836c.659 1.284 1.472 2.061 1.807 1.726.336-.335-.203-1.386-1.197-2.336-1.728-1.65-1.755-1.623-.61.61M480.5 159c-.34.55.084 1 .941 1s1.559-.45 1.559-1-.423-1-.941-1-1.219.45-1.559 1m-3.421 1.583c.048 1.165.285 1.402.604.605.289-.722.253-1.585-.079-1.917-.332-.332-.568.258-.525 1.312m-294.261 3.077c1.649 3.082 18.275 27.71 19.767 29.28 3.781 3.983 1.942-.687-2.803-7.117-2.972-4.028-7.732-10.779-10.577-15.004-4.887-7.256-8.766-11.605-6.387-7.159M506 174.559c0 .857.457 1.276 1.016.931.559-.346.758-1.047.441-1.559-.857-1.387-1.457-1.129-1.457.628m-470.557 2.859c-1.067.78-1.675 1.683-1.352 2.006.323.324 1.405-.314 2.403-1.418 2.125-2.347 1.689-2.591-1.051-.588m473.238 3.545c-.987 1.67-1.334 3.037-.773 3.037 1.237 0 3.352-3.721 2.894-5.093-.18-.54-1.134.385-2.121 2.056M35.5 182c-.995 1.1-1.306 2-.69 2 .616 0 1.601-.9 2.19-2s.899-2 .69-2c-.209 0-1.195.9-2.19 2m.152 4.661c-1.017 1.362-1.652 2.673-1.411 2.914.696.695 4.002-3.355 3.612-4.425-.194-.53-1.185.149-2.201 1.511M473 186.059c0 .582.45.781 1 .441s1-.816 1-1.059-.45-.441-1-.441-1 .477-1 1.059m-437.429 5.512c-.864.865-1.571 2.059-1.571 2.653 0 .595.9.044 2-1.224 2.867-3.306 2.54-4.397-.429-1.429m66.85 1.558c-.384.62-4.405 2.841-8.935 4.934-8.792 4.061-12.516 7.602-12.437 11.822.077 4.082 21.005 16.817 37.055 22.548l9.147 3.266 5.374-5.549c2.956-3.052 5.375-5.812 5.375-6.132 0-.321-4.328-4.393-9.617-9.051-5.29-4.657-12.672-11.729-16.406-15.717-6.817-7.281-8.266-8.209-9.556-6.121m-66.842 2.996c-1.056 1.027-1.691 2.096-1.41 2.377.28.281 1.329-.395 2.331-1.502 2.353-2.6 1.595-3.32-.921-.875m370.548 1.169c-1.119 1.811-3.518 4.593-5.331 6.18-1.813 1.588-7.032 6.4-11.598 10.693-4.566 4.293-11.428 9.663-15.25 11.933-6.724 3.995-8.501 5.9-5.505 5.9.794 0 2.241 1.35 3.216 3 2.223 3.764.924 3.896 19.287-1.959C406.899 227.954 431 215.47 431 212.292c0-2.164-7.123-9.316-11.432-11.479-2.237-1.123-5.5-3.115-7.251-4.427-3.989-2.99-3.76-3.023-6.19.908M36 200.5c-.707.852-1.06 1.773-.785 2.048.275.275 1.078-.196 1.785-1.048.707-.852 1.06-1.773.785-2.048-.275-.275-1.078.196-1.785 1.048m.5 4.5c-.34.55-.141 1 .441 1S38 205.55 38 205s-.198-1-.441-1-.719.45-1.059 1m469.136 1.506c-.315.822-.164 1.494.336 1.494 1.356 0 2.198-1.777 1.149-2.425-.501-.31-1.169.109-1.485.931M35.5 208c-.34.55-.141 1 .441 1S37 208.55 37 208s-.198-1-.441-1-.719.45-1.059 1m465.125 2.125c-.834 4.168-.026 4.976.875.875.38-1.729.482-3.351.227-3.606-.255-.255-.751.974-1.102 2.731m-21.987 1.375c-.316.825-.187 1.5.286 1.5.474 0 1.121-.675 1.438-1.5.316-.825.187-1.5-.286-1.5-.474 0-1.121.675-1.438 1.5M35.5 212c-.34.55-.168 1 .382 1s1.278-.45 1.618-1c.34-.55.168-1-.382-1s-1.278.45-1.618 1m443.426 2.05c-.041.247-.263 1.462-.494 2.7-.231 1.238-.02 2.25.467 2.25 1.423 0 2.263-3.238 1.134-4.367-.568-.568-1.066-.83-1.107-.583m-442.343 1.816c-.431.697-.513 1.537-.183 1.867.895.895 1.871-.421 1.387-1.871-.338-1.016-.574-1.016-1.204.004m393.271 3.884c-2.552 6.363-3.605 7.685-9.429 11.841-6.453 4.605-23.342 11.861-34.675 14.897-7.498 2.009-7.527 2.048-4.847 6.705 1.047 1.819 2.229 4.882 2.627 6.807 1.665 8.044 1.738 8.104 7.679 6.388 28.487-8.231 50.696-32.068 43.265-46.438-1.902-3.679-3.202-3.735-4.62-.2m-393.104.827c-.413.416-.75 1.671-.75 2.79 0 1.471.302 1.731 1.094.939.601-.601.939-1.857.75-2.789-.189-.933-.681-1.356-1.094-.94m42 2.503c-2.145 1.25-2.282 5.711-.319 10.41 3.283 7.858 17.914 17.971 31.806 21.986 6.197 1.791 7.763 1.482 7.763-1.535 0-1.179.687-1.944 1.75-1.949.963-.004 2.308-1.209 2.99-2.677 1.391-2.997.65-4.763-.865-2.057-1.17 2.092-4.187 2.276-5.783.353-.634-.764-3.224-1.911-5.757-2.548-5.988-1.508-11.067-4.143-18.666-9.685-7.446-5.431-8.669-6.922-8.669-10.569 0-2.948-1.27-3.464-4.25-1.729M35 228c0 .55.675 1 1.5 1s1.5-.45 1.5-1-.675-1-1.5-1-1.5.45-1.5 1m393.843 4.597c-.189 3.078-.006 5.805.407 6.059.413.254.75-.858.75-2.472 0-1.614.281-4.34.625-6.059.377-1.886.216-3.125-.407-3.125-.568 0-1.187 2.519-1.375 5.597m51.343-1.542c-1.273.51-2.053 1.351-1.734 1.867.319.517.123 1.222-.436 1.568-1.258.778-1.337 2.51-.115 2.51.496 0 1.831-1.575 2.966-3.5 1.136-1.925 1.968-3.471 1.849-3.437-.119.035-1.257.481-2.53.992M34.75 232.08c-2.495 1.453-2.259 3.263.25 1.92 2.985-1.598 2.581.755-.553 3.22-1.404 1.104-2.302 2.258-1.996 2.565 1.067 1.066 5.549-4.151 5.549-6.459 0-2.55-.61-2.783-3.25-1.246m131.443 3.895c-16.576 12.007-25.664 36.756-22.226 60.525 2.67 18.465 2.707 17.92-1.399 20.458-3.647 2.254-3.651 2.266-1.928 4.901 2.312 3.536 3.46 4.622 7.465 7.064 5.347 3.26 5.643 2.931 4.604-5.117l-.928-7.194 5.86-5.49C170.629 298.951 207 262.898 207 262.193c0-.415-5.732-5.015-12.737-10.223-7.005-5.209-15.11-11.607-18.01-14.22-6.246-5.625-5.039-5.412-10.06-1.775m159.156.859c-2.081 2.211-22.122 19.105-26.104 22.006l-2.585 1.883 10.42 9.849c5.731 5.416 16.207 15.825 23.28 23.129 11.244 11.613 15.962 15.187 14.288 10.823-.269-.7 1.324-3.017 3.541-5.149l4.03-3.875-.596-11c-.624-11.532-2.4-19.985-5.049-24.027-.866-1.322-1.574-3.078-1.574-3.903 0-.825-1.35-3.038-3-4.917s-3-3.82-3-4.313c0-.492-.789-1.571-1.754-2.397-.965-.826-2.666-2.614-3.781-3.973-4.574-5.576-6.051-6.328-8.116-4.136m156.401.383c-1.867 2.337-2.239 3.783-.972 3.783 1.045 0 4.222-3.771 4.222-5.011 0-1.627-1.388-1.102-3.25 1.228m-446.566 3.634c-1.274 1.292-2.167 2.499-1.985 2.681.645.645 5.059-3.254 4.683-4.136-.21-.493-1.424.162-2.698 1.455m467.066-2.145c-1.238.238-2.25 1.087-2.25 1.887 0 1.206.467 1.161 2.75-.267 4.233-2.648 4.267-2.538-.5-1.62M483 241.833c0 .642-.493 1.054-1.096.917-1.407-.321-3.133 3.99-1.903 4.751 1.032.638 4.461-5.372 3.573-6.261-.316-.315-.574-.048-.574.593m-447.75 3.582c-1.237 1.186-2.25 2.538-2.25 3.007 0 .468 1.193-.342 2.652-1.801 3.182-3.182 2.814-4.286-.402-1.206M34.732 250c-.942 1.1-1.379 1.986-.972 1.968 1.04-.044 4.24-2.556 4.24-3.328 0-1.264-1.587-.603-3.268 1.36m.518 3.22c-1.237.597-2.25 1.477-2.25 1.956 0 .478 1.125.133 2.5-.768 3.668-2.403 3.539-3.015-.25-1.188m-.235 3.734c-1.367 1.05-2.231 2.163-1.921 2.474.311.31 1.62-.559 2.91-1.932 2.788-2.968 2.427-3.167-.989-.542M36 265.5c-.685.825-.852 1.51-.372 1.522.479.012-.246.882-1.613 1.932-1.367 1.05-2.192 2.202-1.833 2.561.358.358 1.626-.323 2.818-1.515 1.192-1.192 1.908-2.425 1.592-2.741-.316-.316-.073-1.179.539-1.917.613-.738.889-1.342.614-1.342s-1.06.675-1.745 1.5m-2.016 8.017c-3.05 3.247-1.487 5.147 2.016 2.451 1.375-1.058 1.964-1.934 1.309-1.946-.655-.012-1.469.428-1.809.978-.34.55-1.154.985-1.809.967-.655-.019-.115-.93 1.201-2.025 1.315-1.096 2.179-2.204 1.92-2.463-.259-.259-1.532.658-2.828 2.038m447.599.126c-.837 2.182.275 3.196 1.456 1.328 1.183-1.87 1.208-2.971.068-2.971-.491 0-1.177.739-1.524 1.643M479 280.059c0 .582.45.781 1 .441s1-.816 1-1.059-.45-.441-1-.441-1 .477-1 1.059M34.1 289.6c-1.304 1.355-2.161 2.672-1.906 2.928.256.255 1.518-.657 2.806-2.028s2.145-2.688 1.906-2.928c-.24-.239-1.502.673-2.806 2.028M34 294c-1.375 1.076-2.007 1.966-1.405 1.978.602.012 1.91-.878 2.905-1.978 2.28-2.52 1.721-2.52-1.5 0m355.248 10.52c.091 5.972-.329 7.374-4.793 16.016l-4.892 9.471 2.126 2.126 2.126 2.126 1.717-3.379c.944-1.859 3.289-5.321 5.211-7.693l3.494-4.313 2.382 2.237c3.03 2.847 2.993 4.221-.228 8.442l-2.608 3.42 5.199 8.19c4.661 7.341 18.197 25.224 25.155 33.233 2.276 2.619 2.859 2.852 4.25 1.697 2.745-2.278 1.846-6.373-2.978-13.567-6.323-9.427-6.537-10.248-3.751-14.354 5.23-7.707 2.003-16.667-12.085-33.554-3.318-3.977-13.76-12.621-19.248-15.934-.857-.517-1.149 1.065-1.077 5.836m90.352-2.92c-.356.927-.422 1.911-.147 2.186.275.275.791-.259 1.147-1.186.356-.927.422-1.911.147-2.186-.275-.275-.791.259-1.147 1.186m-.1 6.4c-.34.55-.141 1 .441 1s1.059-.45 1.059-1-.198-1-.441-1-.719.45-1.059 1m-444.813 2.805c-3.163 3.302-3.632 5.36-.594 2.611 1.96-1.774 4.401-5.416 3.629-5.416-.191 0-1.557 1.262-3.035 2.805m.016 10.793c-.988 1.321-1.434 2.402-.99 2.402.872 0 3.632-3.998 3.106-4.499-.175-.168-1.128.776-2.116 2.097m444.756 3.469c-.363.586-.445 1.281-.183 1.543s.743-.218 1.069-1.067c.676-1.762.1-2.072-.886-.476m-444.853 3.517c-.373.973-.15 1.431.581 1.187 1.495-.498 2.318-2.771 1.003-2.771-.537 0-1.249.713-1.584 1.584M152 335.059c0 .582.45.781 1 .441s1-.816 1-1.059-.45-.441-1-.441-1 .477-1 1.059m229.522 5.501c-2.305 3.023-2.561 3.965-1.694 6.25.561 1.479 1.3 4.378 1.642 6.44l.621 3.75h-4.921c-3.117 0-7.062.947-10.762 2.583-6.77 2.994-18.757 4.522-32.915 4.197-5.165-.119-9.694.088-10.066.46-1.844 1.844 20.689 23.535 28.735 27.662l6.477 3.323 4.431-2.233c8.742-4.406 17.554-10.946 24.74-18.36l7.31-7.542 6.287 6.705c3.458 3.688 7.752 8.393 9.544 10.455 3.624 4.174 5.606 4.72 6.533 1.8.865-2.725-1.276-6.434-11.81-20.457-5.046-6.718-11.641-15.899-14.656-20.403-6.329-9.457-5.954-9.274-9.496-4.63M31.02 339.476c-.789.95-.865 1.524-.201 1.524 1.208 0 2.617-1.897 1.924-2.591-.252-.251-1.027.229-1.723 1.067m243.329.058c-.82 2.135.72 6.66 2.464 7.238.976.325 1.232-.658 1-3.84-.324-4.423-2.32-6.381-3.464-3.398M35 340.059c0 .582.45.781 1 .441s1-.816 1-1.059-.45-.441-1-.441-1 .477-1 1.059m161.574-.178c-.337.544.418 2.031 1.677 3.304 2.198 2.224 4.72 7.995 17.399 39.815 3.178 7.975 7.426 17.5 9.441 21.166 2.576 4.686 3.512 7.46 3.152 9.342-.474 2.479-.361 2.583 1.522 1.407 1.786-1.116 2.398-.905 5.031 1.727 2.499 2.499 2.751 3.154 1.512 3.936-1.437.906 5.317 11.141 8.129 12.32.522.218 2.084 1.532 3.47 2.918l2.521 2.521-7.155 6.61c-7.057 6.519-15.203 11.312-24.558 14.449-7.023 2.354-7.761 2.184-7.129-1.646 2.373-14.39 10.71-30.623 17.658-34.38 1.593-.861 1.61-1.134.193-3.156-2.223-3.174-3.535-2.787-7.786 2.299-7.52 8.996-13.27 23.23-14.74 36.487-.518 4.675-1.141 9.048-1.383 9.718-.823 2.275 1.048 2.151 9.542-.633 15.359-5.032 29.11-12.97 35.935-20.744l3.168-3.607 5.663 5.506c6.887 6.696 16.599 12.486 28.876 17.213 11.152 4.294 11.288 4.301 11.288.567 0-3.212-3.03-5.326-11.5-8.023-9.525-3.034-19.124-8.823-24.807-14.961l-5.67-6.126 6.583-6.205c7.08-6.673 10.319-8.589 14.644-8.66 3.557-.058 3.484-1.653-.311-6.813l-3.061-4.162 3.92-5.785c5.136-7.579 6.246-9.825 18.749-37.936 5.833-13.117 11.472-24.778 12.53-25.913 2.819-3.027 2.45-3.436-3.102-3.436-4.548 0-5.123.258-6.059 2.721-.569 1.496-2.589 5.997-4.49 10.003-5.535 11.663-7.88 16.942-13.895 31.276-3.116 7.425-6.985 15.942-8.598 18.928-3.138 5.806-3.565 8.04-1.864 9.741.76.76.541 2.195-.754 4.95l-1.823 3.881-7.226.293-7.226.294.604 6.206c.579 5.956.531 6.138-1.198 4.493-.991-.942-2.059-3.635-2.374-5.983-.525-3.921-.859-4.329-4.072-4.982-7.454-1.517-9-2.1-9-3.394 0-.736-1.384-3.685-3.074-6.553-5.191-8.803-10.431-19.901-14.342-30.374-2.054-5.5-4.143-10.9-4.641-12-.498-1.1-.752-3.234-.563-4.742.189-1.509-.269-3.251-1.018-3.873-.749-.621-1.362-1.6-1.362-2.174 0-.574-.714-1.756-1.586-2.627-.872-.871-3.265-4.734-5.317-8.584-3.459-6.488-3.994-7.022-7.321-7.305-1.975-.167-3.866.141-4.202.686m176.035 1.542c.581 1.515 3.356 2.946 4.158 2.144 1.064-1.065-.832-3.567-2.704-3.567-1.319 0-1.814.485-1.454 1.423M228.329 344c.354 1.375.65 2.837.657 3.25.008.413.689.75 1.514.75 2.179 0 1.837-2.392-.657-4.595-2.148-1.897-2.154-1.895-1.514.595m-195.232 3.176c-2.678 3.19-3.094 4.208-1.998 4.885 1.102.682 1.131 1.109.143 2.097-1.698 1.698-1.559 2.394.508 2.538.962.067 2.614-1.074 3.67-2.537l1.919-2.659-2.669 2.424c-3.231 2.934-3.507 1.443-.47-2.539l2.2-2.885-2.2 1.905c-3.242 2.808-2.854-.113.477-3.59 1.473-1.537 2.481-2.991 2.24-3.231-.24-.24-1.959 1.376-3.82 3.592m125.716-3.493c.721.289 1.584.253 1.916-.079.332-.332-.258-.568-1.312-.525-1.165.048-1.402.285-.604.604M509.5 345c-.34.55-.141 1 .441 1s1.059-.45 1.059-1-.198-1-.441-1-.719.45-1.059 1m-4.5 11c0 .55.45 1 1 1s1-.45 1-1-.45-1-1-1-1 .45-1 1m-386.309 8.433c-7.058 8.175-6.239 11.93 4.309 19.76 16.817 12.484 23.883 11.39 42.468-6.578 11.237-10.864 11.186-11.615-.789-11.615-9.855 0-25.403-2.772-30.588-5.453-6.142-3.176-10.183-2.157-15.4 3.886M505.5 361c.34.55 1.041 1 1.559 1s.941-.45.941-1-.702-1-1.559-1-1.281.45-.941 1m-192.445 7.609c-2.372 5.361-2.038 6.391 2.07 6.391 6.883 0 9.251-4.986 4.24-8.927-3.626-2.853-3.991-2.706-6.31 2.536m-130.054-1.404c.001 1.487 8.958 6.795 11.466 6.795 2.593 0 1.477-4.278-1.467-5.625-4.312-1.973-10-2.638-9.999-1.17m-148.83 2.113c-1.194 1.271-2.171 2.727-2.171 3.236 0 .509 1.171-.337 2.601-1.88 1.431-1.543 2.408-2.999 2.171-3.236-.237-.236-1.408.61-2.601 1.88M505 367.393c0 .216.698.661 1.552.989.89.341 1.291.173.941-.393-.587-.951-2.493-1.406-2.493-.596m1.958 4.158c-1.085 1.307-.958 1.636.808 2.098 1.278.334 1.886 1.095 1.558 1.95-.296.77-.088 1.401.462 1.401 1.443 0 2.314-2.82 1.102-3.569-.563-.348-.783-1.263-.488-2.032.727-1.894-1.838-1.781-3.442.152m-474.962 3.953C30.707 376.877 30.08 378 30.603 378c1.118 0 4.727-4.003 4.139-4.591-.22-.221-1.456.722-2.746 2.095m136.336 7.509C158.213 392.518 144.57 402 141.013 402c-4.49 0-20.51-11.124-26.722-18.556-4.402-5.266-4.891-5.338-9.791-1.444-4.736 3.764-8.222 3.955-9.089.5-.711-2.833-1.264-2.98-4.925-1.312-6.367 2.902 5.411 22.404 18.668 30.911 22.836 14.654 51.98 10.737 72.436-9.735 14.591-14.602 16.1-21.237 5.642-24.801-2.512-.855-5.354-2.269-6.317-3.14-1.629-1.474-2.511-.871-12.583 8.59m337.232-5.306c-.542 1.425-.428 1.54.56.56.684-.679.991-1.486.683-1.793-.308-.308-.867.247-1.243 1.233m-197.051.273c-.333.539.322 3.982 1.455 7.652 2.442 7.905 2.124 8.514-2.983 5.717-2.133-1.168-4.126-1.874-4.431-1.57-4.242 4.243 17.315 21.851 32.829 26.815 20.517 6.566 39.709 3.395 59.583-9.843 11.299-7.526 16.203-12.684 13.231-13.918-.441-.183-3.205-3.35-6.142-7.037l-5.339-6.703-2.736 2.703C389.754 385.972 372.569 398 370.829 398c-.453 0-3.75 1.382-7.326 3.072l-6.501 3.072-9.751-5.793c-5.606-3.33-12.712-8.674-16.718-12.572-8.061-7.845-7.204-7.467-9.712-4.279-2.586 3.287-3.821 3.16-3.821-.393 0-1.716-.644-3.14-1.582-3.5-2.419-.928-6.228-.723-6.905.373m-274.007 3.014c-.999 1.103-1.489 2.006-1.09 2.006 1.055 0 3.905-3.012 3.364-3.554-.253-.252-1.276.444-2.274 1.548m-3.357 6.677c-1.813 1.961-1.087 2.488 1.162.843.995-.727 1.444-1.543.999-1.813-.446-.27-1.418.166-2.161.97m467.244-.089c.334.87.607 1.796.607 2.059 0 .262.43.211.956-.114 1.161-.718.229-3.527-1.17-3.527-.55 0-.727.712-.393 1.582M32.5 391c-1.581 1.65-2.424 3-1.874 3 .55 0 2.293-1.35 3.874-3s2.424-3 1.874-3c-.55 0-2.293 1.35-3.874 3m469.5-1.071c0 1.192 3.094 4.31 3.688 3.716.597-.597-1.956-4.645-2.929-4.645-.417 0-.759.418-.759.929M34.872 392.75c-1.243 1.586-1.208 1.621.378.378 1.666-1.307 2.195-2.128 1.372-2.128-.207 0-.995.788-1.75 1.75M235 393.874c0 1.374 5.177 10.283 5.682 9.778.249-.249-.71-2.748-2.132-5.553-2.46-4.854-3.55-6.152-3.55-4.225M505.5 396c-.34.55-.141 1 .441 1s1.059-.45 1.059-1-.198-1-.441-1-.719.45-1.059 1m-473.994 1.994c-.999 1.103-1.351 2.006-.783 2.006 1.258 0 3.752-2.858 3.08-3.53-.265-.265-1.299.42-2.297 1.524M509 398c-.688 1.286-.714 2-.07 2 .55 0 1.481-.9 2.07-2 .688-1.286.714-2 .07-2-.55 0-1.481.9-2.07 2m-475.994 2.95c-1.921 1.593-3.24 3.149-2.931 3.458.309.309 2.082-1.006 3.94-2.923 4.096-4.226 3.699-4.437-1.009-.535M268 402.882c0 .55.45 1.278 1 1.618.55.34 1 .168 1-.382s-.45-1.278-1-1.618c-.55-.34-1-.168-1 .382m233 2.511c0 .216.698.661 1.552.989.89.341 1.291.173.941-.393-.587-.951-2.493-1.406-2.493-.596m-259.269 2.687c.354 1.352.807 1.806 1.057 1.057.24-.722-.038-1.787-.62-2.369-.742-.742-.872-.351-.437 1.312M32.19 410.111c-1.82 1.706-3.043 3.369-2.717 3.696.327.326 2.259-1.072 4.294-3.107 4.467-4.468 3.105-4.976-1.577-.589m438.374 20.596c-.542 1.425-.428 1.54.56.56.684-.679.991-1.486.683-1.793-.308-.308-.867.247-1.243 1.233m-436.908 1.412c-2.115 1.114-3.59 2.28-3.279 2.591.942.942 9.722-1.912 9.347-3.038-.59-1.77-2.066-1.662-6.068.447M470 436.5c0 .825-.45 1.5-1 1.5s-1-.45-1-1-.505-1-1.122-1c-.815 0-.823.361-.03 1.317.839 1.011-.051 2.443-3.833 6.168-2.709 2.668-4.651 5.295-4.316 5.838.336.542.141.696-.431.343-1.697-1.049-3.389 1.832-2.495 4.248l.803 2.172 3.385-2.293c1.862-1.261 3.558-2.968 3.77-3.793.261-1.015.027-.934-.723.25-.609.962-1.635 1.75-2.28 1.75-.645 0-.197-.975.995-2.168 1.751-1.75 2.45-1.933 3.633-.951 1.77 1.469 2.936.045 1.988-2.427-.465-1.211-.245-1.588.734-1.261.902.3 1.839-.803 2.645-3.114 1.514-4.346 1.621-7.079.277-7.079-.55 0-1 .675-1 1.5m-434.187 7.183c.721.289 1.584.253 1.916-.079.332-.332-.258-.568-1.312-.525-1.165.048-1.402.285-.604.604m9.63 2.735c-1.067.78-1.667 1.692-1.333 2.025.334.334 1.683-.289 2.998-1.385 2.717-2.262 1.299-2.807-1.665-.64M39.5 447c-.34.55-.168 1 .382 1s1.278-.45 1.618-1c.34-.55.168-1-.382-1s-1.278.45-1.618 1m176.674 1.314c-2.271 2.419-2.748 5.232-1.278 7.553 1.539 2.428 8.104-.416 8.104-3.51 0-6.008-3.199-7.903-6.826-4.043m-186.715-.247c-1.141 1.846.121 2.015 3.64.487l3.401-1.476-3.191-.039c-1.755-.021-3.488.441-3.85 1.028m19.847 2.57c-1.207.843-3.682 1.655-5.5 1.805-4.603.38-4.806.443-4.806 1.475 0 .504 1.575.792 3.5.639 2.895-.229 3.5.059 3.5 1.667 0 1.107.536 1.765 1.246 1.528.685-.228 1.247-1.053 1.25-1.833.008-2.919 2.279-5.517 3.642-4.168.809.801.869 1.25.169 1.25-1.679 0-2.481 3.086-1.202 4.627.627.755 2.547 1.38 4.267 1.388 2.426.012 2.791.241 1.628 1.02-.825.552-3.318.91-5.541.796-2.222-.114-4.624.153-5.337.594-.721.445-1.79.307-2.409-.312C42.33 459.73 41 459.674 41 461c0 .55.675 1 1.5 1s1.5.384 1.5.853 2.25.637 5 .373c3.327-.32 5-.103 5 .647 0 .62.9 1.127 2 1.127 2.132 0 2.862-1.978.75-2.032-.687-.017-.013-.955 1.5-2.083 3.269-2.439 3.526-3.885.691-3.885-1.133 0-1.778-.455-1.434-1.011.516-.835-4.619-7.107-5.68-6.937-.18.029-1.314.742-2.521 1.585m402.736 4.082c-1.083 1.219-1.146 1.746-.244 2.047.668.223.9.929.516 1.569-.435.727-.101.681.891-.122 1.166-.944 1.542-5.493.428-5.175-.073.021-.789.777-1.591 1.681m-398.792-.001c-1.973.708-1.456 2.282.75 2.282 1.1 0 2-.423 2-.941 0-1.28-1.237-1.883-2.75-1.341M35 456c0 .55.45 1 1 1s1-.45 1-1-.45-1-1-1-1 .45-1 1m5.5 1c-.34.55-.168 1 .382 1s1.278-.45 1.618-1c.34-.55.168-1-.382-1s-1.278.45-1.618 1m415 1c-1.158 1.874.508 3.012 2.546 1.739 1.075-.671 1.954-1.562 1.954-1.98 0-1.124-3.781-.922-4.5.241m-12.49 2.488c-.69.831-.975 1.568-.632 1.637.342.069 1.035.181 1.539.25 1.555.212 2.497 1.625 1.083 1.625-.733 0-1.098.236-.81.524.924.924 3.81-.69 3.81-2.131 0-.766.45-1.393 1-1.393s1 .648 1 1.441.45 1.719 1 2.059c.562.348 1-.451 1-1.824 0-2.562-3.559-4.487-4.289-2.32-.281.832-.803.799-1.916-.118-1.245-1.028-1.763-.982-2.785.25m-381.568 3.418c.308.498 1.46.671 2.559.383 2.752-.719 2.504-1.289-.56-1.289-1.407 0-2.307.408-1.999.906M436 465c0 .55-.9 1-2 1-2.215 0-2.707 1.542-.75 2.349.688.284-.325.317-2.25.074-1.925-.244-2.937-.176-2.25.151.688.326 1.25 1.283 1.25 2.126 0 1.102.633 1.364 2.25.93 1.238-.331 2.515-.609 2.839-.616 1.677-.039 3.577-7.014 1.911-7.014-.55 0-1 .45-1 1m3.676.402c-.565 1.472.082 2.598 1.491 2.598.458 0 .833-.9.833-2 0-2.293-1.523-2.685-2.324-.598M251.5 468c-.746 1.207-.887 1.153 3.75 1.443 4.124.258 5.05-.861 1.5-1.813-3.221-.863-4.546-.77-5.25.37m-3.5 2c0 .55.45 1 1 1s1-.45 1-1-.45-1-1-1-1 .45-1 1m173.776 3.25c.537 2.054 1.369 2.205 3.024.55 1.755-1.755 1.485-2.3-1.141-2.3-1.737 0-2.223.451-1.883 1.75M30 486.286c0 8.476.382 13.714 1 13.714.55 0 1-.498 1-1.107s.675-.848 1.5-.531c.896.344 1.5.008 1.5-.834 0-1.909 1.3-2.579 2.983-1.538 1.098.678 1.135 1.163.177 2.317-.966 1.164-.902 1.578.314 2.045.84.322 1.526 1.049 1.526 1.617 0 1.323-3.685 1.349-4.5.031-.827-1.338-2.5-1.275-2.5.094 0 .601.9 1.329 2 1.616 1.1.288 2 .991 2 1.562 0 .571.823.293 1.829-.617 1.841-1.666 4.171-2.221 4.171-.994 0 .363-1.455 1.959-3.233 3.547-3.43 3.062-2.779 4.83 1.733 4.706 1.922-.052 1.926-.084.091-.803-1.747-.685-1.656-.929 1.068-2.868l2.977-2.12-.392 2.689c-.36 2.472-.109 2.694 3.132 2.761 1.938.04 3.294-.297 3.015-.75-.28-.453-.032-.823.55-.823.582 0 1.059-.845 1.059-1.878 0-2.176-2.705-4.776-3.774-3.628-.399.429-.163.981.524 1.226.688.246 1.25 1.357 1.25 2.47 0 1.435-.461 1.847-1.582 1.417-.87-.334-1.77-.607-2-.607-.23 0-.418-.657-.418-1.461s-.968-2.363-2.151-3.465c-1.73-1.612-1.915-2.289-.945-3.459.954-1.149.909-1.628-.213-2.284-.781-.457-2.153-2.265-3.048-4.018-2.003-3.919-4.202-5.558-3.414-2.544.404 1.542.165 1.936-.923 1.518-1.421-.545-1.372-1.741.232-5.652.653-1.594.433-1.76-1.512-1.143-1.492.473-2.572.255-3.136-.635-1.32-2.084-1.049-3.234.467-1.976 1.092.906 1.336.557 1.25-1.792-.059-1.605-.332-2.903-.607-2.885-1.799.118-2.082-.4-.958-1.754 1.062-1.281.997-1.84-.378-3.214-1.552-1.553-1.664-.742-1.664 12.05M84.5 474c-.34.55-.141 1 .441 1S86 474.55 86 474s-.198-1-.441-1-.719.45-1.059 1m5 0c-.34.55-.141 1 .441 1S91 474.55 91 474s-.198-1-.441-1-.719.45-1.059 1m10.941.468c-1.067.808-1.434 1.483-.813 1.5.62.018 1.687-.643 2.372-1.468 1.581-1.905.935-1.918-1.559-.032M105.5 474c-.34.55-.168 1 .382 1s1.278-.45 1.618-1c.34-.55.168-1-.382-1s-1.278.45-1.618 1m43 0c-.34.55-.141 1 .441 1s1.059-.45 1.059-1-.198-1-.441-1-.719.45-1.059 1m175.5 0c0 .55.45 1 1 1s1-.45 1-1-.45-1-1-1-1 .45-1 1m14 0c0 .55.45 1 1 1s1-.45 1-1-.45-1-1-1-1 .45-1 1m4 0c0 .55.45 1 1 1s1-.45 1-1-.45-1-1-1-1 .45-1 1m6 0c0 .55.477 1 1.059 1s.781-.45.441-1-.816-1-1.059-1-.441.45-.441 1m6.5 0c-.34.55-.141 1 .441 1s1.059-.45 1.059-1-.198-1-.441-1-.719.45-1.059 1m5.5 0c0 .55.477 1 1.059 1s.781-.45.441-1-.816-1-1.059-1-.441.45-.441 1m35.5 0c-.34.55-.141 1 .441 1s1.059-.45 1.059-1-.198-1-.441-1-.719.45-1.059 1m11 0c-.34.55-.141 1 .441 1s1.059-.45 1.059-1-.198-1-.441-1-.719.45-1.059 1m5.5 0c0 .55.45 1 1 1s1-.45 1-1-.45-1-1-1-1 .45-1 1m6 0c0 .55.45 1 1 1s1-.45 1-1-.45-1-1-1-1 .45-1 1m-323.5 1c-.34.55-.168 1 .382 1s1.278-.45 1.618-1c.34-.55.168-1-.382-1s-1.278.45-1.618 1m321 0c.34.55.816 1 1.059 1s.441-.45.441-1-.477-1-1.059-1-.781.45-.441 1m54.372 4.664c-1.244 1.508-1.162 1.552.878.465 2.327-1.24 2.9-2.129 1.372-2.129-.482 0-1.495.749-2.25 1.664m5.174.25c-.774 1.447-.789 2.086-.05 2.086 1.213 0 2.533-2.805 1.709-3.629-.299-.298-1.045.396-1.659 1.543M459 482.929c-1.375.428-4.01 2.194-5.856 3.924-3.586 3.364-5.084 3.905-5.244 1.897-.055-.687-.411-.125-.792 1.25-.381 1.375-2.024 3.132-3.65 3.904-1.627.773-3.183 1.673-3.458 2-.624.744-4.793 3.096-5.486 3.096-.283 0-.514-.753-.514-1.674 0-1.376-.457-1.246-2.559.73-1.408 1.322-2.083 2.563-1.5 2.758 1.362.454 1.369 3.476.01 4.835-2.126 2.126 8.083-.332 10.393-2.503 1.268-1.19 2.554-1.914 2.86-1.609.511.512 8.65-3.213 9.796-4.483 2.193-2.43 4.344-3.474 3.719-1.804-.361.962-.268 1.75.205 1.75 1.419 0 2.234-3.285 1.003-4.045-1.744-1.078.673-2.217 3.082-1.452 1.139.361 1.991.175 1.991-.436 0-.587-.45-1.067-1-1.067s-1-.48-1-1.067c0-.623.858-.795 2.059-.414 1.155.366 3.55-.054 5.457-.96 4.068-1.93 5.853-4.128 2.484-3.059-1.237.393-2.531.272-2.875-.267-.917-1.44-6.242-2.201-9.125-1.304m-412.606 3.057c.105 2.957 2.009 4.789 3.116 2.999.467-.757-2.137-5.985-2.981-5.985-.133 0-.194 1.344-.135 2.986m428.189-1.12c-.431.697-.513 1.537-.183 1.867.895.895 1.871-.421 1.387-1.871-.338-1.016-.574-1.016-1.204.004M450 486c-1.828 1.181-.249 1.181 2.5 0 1.319-.567 1.489-.878.5-.914-.825-.031-2.175.381-3 .914m-398.541 4.067c-.363.586-.419 1.306-.126 1.6.717.716 2.667-.546 2.667-1.726 0-1.278-1.726-1.193-2.541.126m422.271-.424c-.286.471.108 1.437.875 2.146 1.546 1.429 1.842.464.505-1.646-.473-.746-1.094-.971-1.38-.5m-427.289 2.828c2.351 1.852 3.874 1.98 3.314.279-.226-.687-1.501-1.376-2.833-1.529-2.345-.271-2.361-.231-.481 1.25m240.467-.089c1.066 1.29 1.126 1.984.25 2.86-2.013 2.013-1.25 3.152.842 1.258 2.529-2.289 2.505-2.704-.25-4.42-2.077-1.294-2.142-1.27-.842.302m14.671 1.868c.589 1.856-1.034 2.441-2.079.75-1.073-1.736-3.5-1.083-3.5.941 0 1.068-.457 2.224-1.016 2.569-.559.346-.79.995-.513 1.443.637 1.032 5.585.79 7.411-.362.92-.581 1.688-.325 2.299.769 1.109 1.98 2.819 2.16 2.819.295 0-.74.967-2.202 2.15-3.25 2.147-1.903 2.149-1.902 1.481.845-.596 2.449-.394 2.75 1.85 2.75 1.385 0 2.519-.45 2.519-1s-.48-1-1.067-1-.802-.836-.478-1.859c.878-2.765-1.865-4.431-7.479-4.543-4.285-.085-4.878.138-4.397 1.652m78.859-1.149c-.38.614-1.914.854-3.469.543-1.913-.383-2.964-.1-3.347.899-.684 1.781-4.285 1.933-4.902.207-.259-.727-.817-.879-1.333-.363s-.364 1.074.363 1.333c.688.246 1.25 1.07 1.25 1.832 0 1.696 2.983.763 4.642-1.452.933-1.246 1.421-1.293 2.671-.255 1.761 1.462 5.687-.324 5.687-2.586 0-1.552-.659-1.619-1.562-.158m-329.955 2.566C48.741 498.324 50.1 501 53.191 501c1.502 0 .822-1.781-.941-2.464-1.667-.647-1.667-.74 0-1.968 1.838-1.354 2.375-3.568.865-3.568-.487 0-1.671 1.2-2.632 2.667m164.33-1.984c.721.289 1.584.253 1.916-.079.332-.332-.258-.568-1.312-.525-1.165.048-1.402.285-.604.604M221 494c0 .55.675 1 1.5 1s1.5-.45 1.5-1-.675-1-1.5-1-1.5.45-1.5 1m84 1.441c0 .857.45 1.559 1 1.559s1-.423 1-.941-.45-1.219-1-1.559c-.55-.34-1 .084-1 .941m21.5-.441c.34.55.816 1 1.059 1s.441-.45.441-1-.477-1-1.059-1-.781.45-.441 1m-258.958 1.932c-.363.587-.521 1.094-.351 1.125 3.933.731 8.843.697 9.313-.064.354-.572-.647-.993-2.363-.993-1.638 0-3.644-.256-4.458-.568-.814-.313-1.778-.088-2.141.5m19.458.036c-1.375.399-4.075.542-6 .319-3.434-.398-3.455-.379-1.1 1.019l2.399 1.425-3.899 1.031c-3.02.799-3.336 1.058-1.4 1.15 1.808.086 2.123.357 1.139.981-.748.474-2.211.64-3.25.368-1.039-.272-1.889-.044-1.889.507s-1.237 1.807-2.75 2.792c-2.671 1.738-2.707 1.736-1.25-.073 1.367-1.696 1.338-1.801-.332-1.174-1.007.378-2.028.687-2.269.687-.24 0-.155 1.125.19 2.5.653 2.599-.413 3.276-2.256 1.433-.757-.757-1.243-.611-1.669.5-.76 1.981 6.202 2.248 8.283.317 1.081-1.004 1.201-.994.609.051-.564.995.301 1.247 3.687 1.072 2.91-.151 4.424-.687 4.424-1.566 0-.82-.68-1.12-1.76-.777-1.555.493-1.623.268-.584-1.935 1.469-3.112 2.857-3.478 9.707-2.558 3.009.404 5.897.336 6.42-.151 1.176-1.097 2.845-1.173 2.182-.1-.267.432.35.785 1.37.785s1.834-.241 1.808-.535c-.247-2.822.466-3.786 2.804-3.786 1.437 0 2.988-.606 3.445-1.346 1.101-1.78 2.162-.644 1.358 1.453-.348.906-1.731 1.643-3.083 1.643-1.349 0-2.212.389-1.918.864.293.475 2.423.863 4.732.863 3.776 0 4.013-.136 2.349-1.353-1.018-.744-1.579-1.626-1.246-1.959.986-.986 6.746.641 6.779 1.914.017.644.493.377 1.058-.593.895-1.537 1.212-1.578 2.471-.32 1.094 1.094 2.229 1.218 4.686.514 1.783-.512 3.412-.93 3.621-.93.208 0-.181-.675-.866-1.5-.897-1.081-.922-1.5-.091-1.5.635 0 1.413.675 1.729 1.5.868 2.26 2.05 1.801 1.864-.724-.186-2.527-3.529-3.785-7.502-2.824-2.643.639-16.765.5-26-.257-3.025-.248-6.625-.125-8 .273M405.275 498c-.147 1.949.785 2.606 1.989 1.402.719-.718-.195-3.402-1.158-3.402-.374 0-.748.9-.831 2m16.606.268c-1.434 1.942-1.818 2.029-3.348.76-1.54-1.279-1.705-1.223-1.515.519.412 3.792-.032 5.615-1.268 5.199-.701-.236-1.109-1.589-.928-3.083.379-3.145-1.293-3.52-2.837-.635-.597 1.115-1.511 1.765-2.031 1.444-1.096-.678-3.595 4.22-2.641 5.175.351.351 1.325.069 2.163-.627 1.217-1.01 1.826-1.014 3.024-.02 1.175.975 1.816.983 2.956.036.801-.664 1.927-.917 2.502-.562.575.356 1.473-.478 1.996-1.853 1.3-3.42 5.046-5.471 5.046-2.763 0 1.06-.704 2.198-1.563 2.528-.86.33-1.284 1.053-.941 1.607.85 1.376 3.504 1.276 3.504-.133 0-.627.788-1.78 1.75-2.563 1.21-.984 1.382-1.577.556-1.924-.656-.276-.958-1.115-.671-1.865.381-.992-.087-1.202-1.725-.774-1.799.47-2.12.256-1.61-1.073.9-2.346-.498-1.995-2.419.607M131.5 498c-.34.55.084 1 .941 1s1.559-.45 1.559-1-.423-1-.941-1-1.219.45-1.559 1m3.5 0c0 .55.675 1 1.5 1s1.5-.45 1.5-1-.675-1-1.5-1-1.5.45-1.5 1m6.813-.317c.721.289 1.584.253 1.916-.079.332-.332-.258-.568-1.312-.525-1.165.048-1.402.285-.604.604M333.5 498c.34.55 1.041 1 1.559 1s.941-.45.941-1-.702-1-1.559-1-1.281.45-.941 1m59 0c.34.55 1.293 1 2.118 1s1.222-.45.882-1c-.34-.55-1.293-1-2.118-1s-1.222.45-.882 1M56 499c0 .55.45 1 1 1s1-.45 1-1-.45-1-1-1-1 .45-1 1m39.5 0c-.34.55-.141 1 .441 1S97 499.55 97 499s-.198-1-.441-1-.719.45-1.059 1m16.313.683c.721.289 1.584.253 1.916-.079.332-.332-.258-.568-1.312-.525-1.165.048-1.402.285-.604.604M119 500c1.939 1.253 3 1.253 3 0 0-.55-1.013-.993-2.25-.985-1.819.013-1.963.201-.75.985m171.015-.464c.028 1.721 1.856 3.927 2.621 3.161.41-.409-.016-1.505-.946-2.435-.929-.93-1.683-1.257-1.675-.726m86.085.714c.055.688.46 2.375.9 3.75.715 2.231.811 2.097.9-1.25.055-2.062-.35-3.75-.9-3.75s-.955.563-.9 1.25m75.538 1.25c-.316.825-.187 1.5.286 1.5.474 0 1.121-.675 1.438-1.5.316-.825.187-1.5-.286-1.5-.474 0-1.121.675-1.438 1.5m22.498-.164c-.934 1.125-.868 1.553.306 2.004 1.818.697 2.708-.48 1.654-2.185-.604-.977-1.031-.938-1.96.181M46 502c0 .55.675 1 1.5 1s1.5-.45 1.5-1-.675-1-1.5-1-1.5.45-1.5 1m22.813-.317c.721.289 1.584.253 1.916-.079.332-.332-.258-.568-1.312-.525-1.165.048-1.402.285-.604.604M197.5 502c-.34.55-.168 1 .382 1s1.278-.45 1.618-1c.34-.55.168-1-.382-1s-1.278.45-1.618 1m74.182.387c-.373.971.042 1.237 1.382.886 1.052-.275 1.667-.899 1.366-1.387-.814-1.316-2.144-1.074-2.748.501m56.925.195c-.886 2.31-.838 2.337 1.885 1.074 2.961-1.373 3.258-2.656.615-2.656-1.041 0-2.166.712-2.5 1.582M336.5 502c.34.55.816 1 1.059 1s.441-.45.441-1-.477-1-1.059-1-.781.45-.441 1m8.636.75c-.075 1.238-.489 2.25-.92 2.25-.77 0-4.216 5.235-4.216 6.404 0 .328 1.8.596 4 .596 3.212 0 4-.361 4-1.833 0-2.541-1.066-3.357-2.658-2.036-1.596 1.325-1.82-.253-.257-1.816.596-.596.883-2.149.636-3.45-.441-2.324-.451-2.326-.585-.115M53 503c0 .55.45 1 1 1s1-.45 1-1-.45-1-1-1-1 .45-1 1m77.5 0c-.34.55.335 1 1.5 1s1.84-.45 1.5-1c-.34-.55-1.015-1-1.5-1-.485 0-1.16.45-1.5 1m135.132.214c.268.432 1.134.786 1.927.786.793 0 1.441-.354 1.441-.786 0-.432-.867-.785-1.927-.785-1.059 0-1.708.353-1.441.785m136.699.367c-.334.869-1.36 1.383-2.28 1.143-.92-.241-2.988.612-4.597 1.894l-2.925 2.333 3.735-.606c3.547-.576 5.424.886 2.486 1.935-.687.245-.975.745-.639 1.111.989 1.076 6.08-1.274 5.343-2.466-.367-.593.291-1.971 1.462-3.061 1.171-1.091 1.867-2.406 1.547-2.924-.92-1.488-3.467-1.094-4.132.641m-266.518.102c.721.289 1.584.253 1.916-.079.332-.332-.258-.568-1.312-.525-1.165.048-1.402.285-.604.604m159.937.397c-1.717 1-2.475 3.95-1 3.889.413-.018 1.559-1.143 2.547-2.5 1.894-2.603 1.361-3.082-1.547-1.389M359 504c0 .55.675 1 1.5 1s1.5-.45 1.5-1-.675-1-1.5-1-1.5.45-1.5 1m24 0c0 .55.45 1 1 1s1-.45 1-1-.45-1-1-1-1 .45-1 1m-109.5 1c-.34.55-1.679 1-2.976 1-1.296 0-2.62.563-2.941 1.25-.466 1-.7 1-1.166 0-.81-1.734-2.417-1.568-2.417.25 0 .893-.91 1.494-2.25 1.485-1.777-.012-1.941-.211-.779-.946.809-.512 1.11-1.292.668-1.733-.441-.442-1.328-.129-1.971.696-.777.996-2.91 1.489-6.37 1.472-4.803-.024-5.086.103-3.687 1.649 1.233 1.362 3.635 1.699 12.86 1.807l11.344.132 3.572-3.781c3.663-3.878 3.177-5.96-.614-2.634-1.933 1.696-2.058 1.705-1.474.103.676-1.853-.75-2.447-1.799-.75m15.725 1.011c-2.01 3.219-1.396 4.604.986 2.222 1.453-1.453 1.873-2.549 1.225-3.197-.648-.648-1.406-.314-2.211.975m81.791 1.449c-.747 1.902-2.068 3.64-2.937 3.862-.868.221.322.369 2.645.329 4.744-.083 5.709-1.316 3.966-5.07-1.563-3.369-2.053-3.252-3.674.879m-54.503-1.481c-.333.539-.068 1.985.59 3.213l1.195 2.234.853-2.305c1.212-3.277-.958-5.861-2.638-3.142m20.061.688c-.466 1.215-.939 1.368-1.742.565-1.132-1.132-9.745 2.398-9.805 4.018-.059 1.635 4.568.627 5.741-1.25 1.65-2.643 4.591-2.707 3.758-.083-.493 1.553-.221 1.816 1.433 1.383 1.459-.381 2.041-1.355 2.041-3.417 0-3.255-.485-3.669-1.426-1.216m16.176-.978c-2.471.646-2.171 2.805.644 4.65 2.26 1.48 2.366 1.458 1.882-.391-.282-1.077.046-2.631.728-3.453 1.325-1.596.527-1.794-3.254-.806m-43.735 1.637c.028 2.11 1.691 3.878 3.314 3.522 1.285-.281 1.119-.764-.87-2.522-1.353-1.196-2.452-1.646-2.444-1M30.5 508c.34.55 1.266 1 2.059 1 .793 0 1.441.502 1.441 1.117 0 .624-.882.886-2 .593-1.1-.287-2-.115-2 .384 0 .498 1.35.906 3 .906s3-.255 3-.566c0-1.867-2.37-4.434-4.094-4.434-1.113 0-1.746.45-1.406 1m42.5 0c0 .55.45 1 1 1s1-.45 1-1-.45-1-1-1-1 .45-1 1m198.5 1c-.34.55-.141 1 .441 1s1.059-.45 1.059-1-.198-1-.441-1-.719.45-1.059 1m33.464.836c.659 1.284 1.472 2.061 1.807 1.726.336-.335-.203-1.386-1.197-2.336-1.728-1.65-1.755-1.623-.61.61M377 510c0 1.111.667 2 1.5 2 1.683 0 1.751-.183.893-2.418-.857-2.235-2.393-1.966-2.393.418m96.097-.617c-.875 1.055-.834 1.504.173 1.89.785.302 1.379-.259 1.463-1.383.17-2.254-.113-2.342-1.636-.507M94 510.031c0 .533.675.969 1.5.969s1.5-.177 1.5-.393c0-.216-.675-.652-1.5-.969-.825-.316-1.5-.139-1.5.393m145 .41c0 .857.45 1.559 1 1.559s1-.423 1-.941-.45-1.219-1-1.559c-.55-.34-1 .084-1 .941m40.5.095c-2.964 1.358-2.932 1.374 2.719 1.419 4.683.037 5.614-.227 5.143-1.455-.7-1.824-3.831-1.81-7.862.036m79.707-.286c-.778.938-.466 1.25 1.251 1.25 1.419 0 2.105-.474 1.808-1.25-.264-.687-.827-1.25-1.251-1.25-.423 0-1.237.563-1.808 1.25m30.293.75c-.34.55.309 1 1.441 1 1.132 0 2.059-.45 2.059-1s-.648-1-1.441-1-1.719.45-2.059 1m-219.687.683c.721.289 1.584.253 1.916-.079.332-.332-.258-.568-1.312-.525-1.165.048-1.402.285-.604.604" fill-rule="evenodd"/>
</svg>